M48
; DRILL file {KiCad (5.1.9-0-10_14)} date Sunday, March 14, 2021 at 05:55:34 PM
; FORMAT={-:-/ absolute / inch / decimal}
; #@! TF.CreationDate,2021-03-14T17:55:34-04:00
; #@! TF.GenerationSoftware,Kicad,Pcbnew,(5.1.9-0-10_14)
; #@! TF.FileFunction,Plated,1,2,PTH
FMAT,2
INCH
T1C0.0157
T2C0.0315
T3C0.0394
%
G90
G05
T1
X1.4961Y-1.1516
X1.852Y-0.9563
X2.6083Y-1.4665
X2.6083Y-1.4665
X3.7106Y-1.4567
X4.813Y-1.4665
T2
X1.752Y-0.6398
X1.752Y-0.8366
X1.752Y-1.078
X1.752Y-1.378
X1.752Y-2.8209
X1.752Y-3.4114
X1.752Y-4.002
X1.8012Y-2.0768
X1.8012Y-2.4768
X1.8307Y-2.8209
X1.8307Y-3.4114
X1.8307Y-4.002
X1.852Y-1.078
X1.852Y-1.378
X1.9094Y-2.8209
X1.9094Y-3.4114
X1.9094Y-4.002
X1.9512Y-2.0768
X1.9512Y-2.4768
X1.952Y-1.078
X1.952Y-1.378
X1.9882Y-2.8209
X1.9882Y-3.4114
X1.9882Y-4.002
X2.052Y-1.078
X2.052Y-1.378
X2.0669Y-2.8209
X2.0669Y-3.4114
X2.0669Y-4.002
X2.1012Y-2.0768
X2.1012Y-2.4768
X2.1457Y-2.8209
X2.1457Y-3.4114
X2.1457Y-4.002
X2.152Y-1.078
X2.152Y-1.378
X2.2244Y-2.8209
X2.2244Y-3.4114
X2.2244Y-4.002
X2.2512Y-2.0768
X2.2512Y-2.4768
X2.252Y-1.078
X2.252Y-1.378
X2.3031Y-2.8209
X2.3031Y-3.4114
X2.3031Y-4.002
X2.352Y-1.078
X2.352Y-1.378
X2.3819Y-2.8209
X2.3819Y-3.4114
X2.3819Y-4.002
X2.4012Y-2.0768
X2.4012Y-2.4768
X2.452Y-1.078
X2.452Y-1.378
X2.4606Y-2.8209
X2.4606Y-3.4114
X2.4606Y-4.002
X2.5394Y-2.8209
X2.5394Y-3.4114
X2.5394Y-4.002
X2.5512Y-2.0768
X2.5512Y-2.4768
X2.6181Y-2.8209
X2.6181Y-3.4114
X2.6181Y-4.002
X2.6969Y-2.8209
X2.6969Y-3.4114
X2.6969Y-4.002
X2.7012Y-2.0768
X2.7012Y-2.4768
X2.7756Y-2.8209
X2.7756Y-3.4114
X2.7756Y-4.002
X2.815Y-0.6398
X2.815Y-0.8366
X2.815Y-1.078
X2.815Y-1.378
X2.8512Y-2.0768
X2.8512Y-2.4768
X2.8543Y-2.8209
X2.8543Y-3.4114
X2.8543Y-4.002
X2.915Y-1.078
X2.915Y-1.378
X2.9331Y-2.8209
X2.9331Y-3.4114
X2.9331Y-4.002
X3.0012Y-2.0768
X3.0012Y-2.4768
X3.0118Y-2.8209
X3.0118Y-3.4114
X3.0118Y-4.002
X3.015Y-1.078
X3.015Y-1.378
X3.0906Y-2.8209
X3.0906Y-3.4114
X3.0906Y-4.002
X3.115Y-1.078
X3.115Y-1.378
X3.1512Y-2.0768
X3.1512Y-2.4768
X3.1693Y-2.8209
X3.1693Y-3.4114
X3.1693Y-4.002
X3.215Y-1.078
X3.215Y-1.378
X3.248Y-2.8209
X3.248Y-3.4114
X3.248Y-4.002
X3.3012Y-2.0768
X3.3012Y-2.4768
X3.315Y-1.078
X3.315Y-1.378
X3.3268Y-2.8209
X3.3268Y-3.4114
X3.3268Y-4.002
X3.4055Y-2.8209
X3.4055Y-3.4114
X3.4055Y-4.002
X3.415Y-1.078
X3.415Y-1.378
X3.4512Y-2.0768
X3.4512Y-2.4768
X3.4843Y-2.8209
X3.4843Y-3.4114
X3.4843Y-4.002
X3.515Y-1.078
X3.515Y-1.378
X3.563Y-2.8209
X3.563Y-3.4114
X3.563Y-4.002
X3.9567Y-0.6398
X3.9567Y-0.8366
X3.9567Y-1.078
X3.9567Y-1.378
X4.0354Y-2.8209
X4.0354Y-3.4114
X4.0354Y-4.002
X4.0567Y-1.078
X4.0567Y-1.378
X4.0846Y-2.0669
X4.0846Y-2.4669
X4.1142Y-2.8209
X4.1142Y-3.4114
X4.1142Y-4.002
X4.1567Y-1.078
X4.1567Y-1.378
X4.1929Y-2.8209
X4.1929Y-3.4114
X4.1929Y-4.002
X4.2346Y-2.0669
X4.2346Y-2.4669
X4.2567Y-1.078
X4.2567Y-1.378
X4.2717Y-2.8209
X4.2717Y-3.4114
X4.2717Y-4.002
X4.3504Y-2.8209
X4.3504Y-3.4114
X4.3504Y-4.002
X4.3567Y-1.078
X4.3567Y-1.378
X4.3846Y-2.0669
X4.3846Y-2.4669
X4.4291Y-2.8209
X4.4291Y-3.4114
X4.4291Y-4.002
X4.4567Y-1.078
X4.4567Y-1.378
X4.5079Y-2.8209
X4.5079Y-3.4114
X4.5079Y-4.002
X4.5346Y-2.0669
X4.5346Y-2.4669
X4.5567Y-1.078
X4.5567Y-1.378
X4.5866Y-2.8209
X4.5866Y-3.4114
X4.5866Y-4.002
X4.6567Y-1.078
X4.6567Y-1.378
X4.6654Y-2.8209
X4.6654Y-3.4114
X4.6654Y-4.002
X4.6846Y-2.0669
X4.6846Y-2.4669
X4.7441Y-2.8209
X4.7441Y-3.4114
X4.7441Y-4.002
X4.8228Y-2.8209
X4.8228Y-3.4114
X4.8228Y-4.002
X4.8346Y-2.0669
X4.8346Y-2.4669
X4.9016Y-2.8209
X4.9016Y-3.4114
X4.9016Y-4.002
X4.9803Y-2.8209
X4.9803Y-3.4114
X4.9803Y-4.002
X4.9846Y-2.0669
X4.9846Y-2.4669
X5.0591Y-2.8209
X5.0591Y-3.4114
X5.0591Y-4.002
X5.1346Y-2.0669
X5.1346Y-2.4669
X5.1378Y-0.6398
X5.1378Y-0.8366
X5.1378Y-1.078
X5.1378Y-1.378
X5.1378Y-2.8209
X5.1378Y-3.4114
X5.1378Y-4.002
X5.2165Y-2.8209
X5.2165Y-3.4114
X5.2165Y-4.002
X5.2378Y-1.078
X5.2378Y-1.378
X5.2846Y-2.0669
X5.2846Y-2.4669
X5.2953Y-2.8209
X5.2953Y-3.4114
X5.2953Y-4.002
X5.3378Y-1.078
X5.3378Y-1.378
X5.374Y-2.8209
X5.374Y-3.4114
X5.374Y-4.002
X5.4346Y-2.0669
X5.4346Y-2.4669
X5.4378Y-1.078
X5.4378Y-1.378
X5.4528Y-2.8209
X5.4528Y-3.4114
X5.4528Y-4.002
X5.5315Y-2.8209
X5.5315Y-3.4114
X5.5315Y-4.002
X5.5378Y-1.078
X5.5378Y-1.378
X5.5846Y-2.0669
X5.5846Y-2.4669
X5.6102Y-2.8209
X5.6102Y-3.4114
X5.6102Y-4.002
X5.6378Y-1.078
X5.6378Y-1.378
X5.689Y-2.8209
X5.689Y-3.4114
X5.689Y-4.002
X5.7346Y-2.0669
X5.7346Y-2.4669
X5.7378Y-1.078
X5.7378Y-1.378
X5.7677Y-2.8209
X5.7677Y-3.4114
X5.7677Y-4.002
X5.8378Y-1.078
X5.8378Y-1.378
X5.8465Y-2.8209
X5.8465Y-3.4114
X5.8465Y-4.002
T3
X1.437Y-0.6433
X1.437Y-0.7433
X1.437Y-0.8433
X1.437Y-0.9433
X1.437Y-1.0433
T0
M30
