%TF.GenerationSoftware,KiCad,Pcbnew,(5.1.9-0-10_14)*%
%TF.CreationDate,2021-03-14T17:55:17-04:00*%
%TF.ProjectId,LED Display,4c454420-4469-4737-906c-61792e6b6963,rev?*%
%TF.SameCoordinates,Original*%
%TF.FileFunction,Copper,L2,Bot*%
%TF.FilePolarity,Positive*%
%FSLAX46Y46*%
G04 Gerber Fmt 4.6, Leading zero omitted, Abs format (unit mm)*
G04 Created by KiCad (PCBNEW (5.1.9-0-10_14)) date 2021-03-14 17:55:17*
%MOMM*%
%LPD*%
G01*
G04 APERTURE LIST*
%TA.AperFunction,ComponentPad*%
%ADD10R,1.350000X1.350000*%
%TD*%
%TA.AperFunction,ComponentPad*%
%ADD11O,1.350000X1.350000*%
%TD*%
%TA.AperFunction,ComponentPad*%
%ADD12C,1.600000*%
%TD*%
%TA.AperFunction,ComponentPad*%
%ADD13R,1.700000X1.700000*%
%TD*%
%TA.AperFunction,ComponentPad*%
%ADD14O,1.700000X1.700000*%
%TD*%
%TA.AperFunction,ComponentPad*%
%ADD15O,1.600000X1.600000*%
%TD*%
%TA.AperFunction,ComponentPad*%
%ADD16O,1.600000X2.400000*%
%TD*%
%TA.AperFunction,ComponentPad*%
%ADD17R,1.600000X2.400000*%
%TD*%
%TA.AperFunction,ViaPad*%
%ADD18C,0.800000*%
%TD*%
%TA.AperFunction,Conductor*%
%ADD19C,1.000000*%
%TD*%
G04 APERTURE END LIST*
D10*
%TO.P,Display6,1*%
%TO.N,Net-(Display2-Pad1)*%
X102500000Y-101650000D03*
D11*
%TO.P,Display6,2*%
%TO.N,Net-(Display5-Pad10)*%
X104500000Y-101650000D03*
%TO.P,Display6,3*%
%TO.N,Net-(Display2-Pad3)*%
X106500000Y-101650000D03*
%TO.P,Display6,4*%
%TO.N,Net-(Display5-Pad10)*%
X108500000Y-101650000D03*
%TO.P,Display6,5*%
%TO.N,Net-(Display2-Pad5)*%
X110500000Y-101650000D03*
%TO.P,Display6,6*%
%TO.N,Net-(Display5-Pad10)*%
X112500000Y-101650000D03*
%TO.P,Display6,7*%
%TO.N,Net-(Display2-Pad7)*%
X114500000Y-101650000D03*
%TO.P,Display6,8*%
%TO.N,Net-(Display5-Pad10)*%
X116500000Y-101650000D03*
%TO.P,Display6,9*%
%TO.N,Net-(Display2-Pad9)*%
X118500000Y-101650000D03*
%TO.P,Display6,10*%
%TO.N,Net-(Display5-Pad10)*%
X120500000Y-101650000D03*
%TO.P,Display6,11*%
%TO.N,Net-(Display2-Pad11)*%
X122500000Y-101650000D03*
%TO.P,Display6,12*%
%TO.N,Net-(Display5-Pad10)*%
X124500000Y-101650000D03*
%TO.P,Display6,13*%
%TO.N,Net-(Display2-Pad13)*%
X126500000Y-101650000D03*
%TO.P,Display6,14*%
%TO.N,Net-(Display5-Pad10)*%
X128500000Y-101650000D03*
%TO.P,Display6,15*%
%TO.N,Net-(Display2-Pad15)*%
X130500000Y-101650000D03*
%TO.P,Display6,16*%
%TO.N,Net-(Display5-Pad10)*%
X132500000Y-101650000D03*
%TO.P,Display6,17*%
%TO.N,Net-(Display2-Pad17)*%
X134500000Y-101650000D03*
%TO.P,Display6,18*%
%TO.N,Net-(Display5-Pad10)*%
X136500000Y-101650000D03*
%TO.P,Display6,19*%
%TO.N,Net-(Display2-Pad19)*%
X138500000Y-101650000D03*
%TO.P,Display6,20*%
%TO.N,Net-(Display5-Pad10)*%
X140500000Y-101650000D03*
%TO.P,Display6,21*%
%TO.N,Net-(Display2-Pad21)*%
X142500000Y-101650000D03*
%TO.P,Display6,22*%
%TO.N,Net-(Display5-Pad10)*%
X144500000Y-101650000D03*
%TO.P,Display6,23*%
%TO.N,Net-(Display2-Pad23)*%
X146500000Y-101650000D03*
%TO.P,Display6,24*%
%TO.N,Net-(Display5-Pad10)*%
X148500000Y-101650000D03*
%TD*%
D12*
%TO.P,C1,2*%
%TO.N,GND*%
X44500000Y-16250000D03*
%TO.P,C1,1*%
%TO.N,+5V*%
X44500000Y-21250000D03*
%TD*%
%TO.P,C2,1*%
%TO.N,+5V*%
X71500000Y-21250000D03*
%TO.P,C2,2*%
%TO.N,GND*%
X71500000Y-16250000D03*
%TD*%
%TO.P,C3,1*%
%TO.N,+5V*%
X100500000Y-21250000D03*
%TO.P,C3,2*%
%TO.N,GND*%
X100500000Y-16250000D03*
%TD*%
%TO.P,C4,2*%
%TO.N,+5V*%
X130500000Y-21250000D03*
%TO.P,C4,1*%
%TO.N,GND*%
X130500000Y-16250000D03*
%TD*%
D11*
%TO.P,Display1,24*%
%TO.N,Net-(Display1-Pad10)*%
X90500000Y-71650000D03*
%TO.P,Display1,23*%
%TO.N,Net-(Display1-Pad23)*%
X88500000Y-71650000D03*
%TO.P,Display1,22*%
%TO.N,Net-(Display1-Pad10)*%
X86500000Y-71650000D03*
%TO.P,Display1,21*%
%TO.N,Net-(Display1-Pad21)*%
X84500000Y-71650000D03*
%TO.P,Display1,20*%
%TO.N,Net-(Display1-Pad10)*%
X82500000Y-71650000D03*
%TO.P,Display1,19*%
%TO.N,Net-(Display1-Pad19)*%
X80500000Y-71650000D03*
%TO.P,Display1,18*%
%TO.N,Net-(Display1-Pad10)*%
X78500000Y-71650000D03*
%TO.P,Display1,17*%
%TO.N,Net-(Display1-Pad17)*%
X76500000Y-71650000D03*
%TO.P,Display1,16*%
%TO.N,Net-(Display1-Pad10)*%
X74500000Y-71650000D03*
%TO.P,Display1,15*%
%TO.N,Net-(Display1-Pad15)*%
X72500000Y-71650000D03*
%TO.P,Display1,14*%
%TO.N,Net-(Display1-Pad10)*%
X70500000Y-71650000D03*
%TO.P,Display1,13*%
%TO.N,Net-(Display1-Pad13)*%
X68500000Y-71650000D03*
%TO.P,Display1,12*%
%TO.N,Net-(Display1-Pad10)*%
X66500000Y-71650000D03*
%TO.P,Display1,11*%
%TO.N,Net-(Display1-Pad11)*%
X64500000Y-71650000D03*
%TO.P,Display1,10*%
%TO.N,Net-(Display1-Pad10)*%
X62500000Y-71650000D03*
%TO.P,Display1,9*%
%TO.N,Net-(Display1-Pad9)*%
X60500000Y-71650000D03*
%TO.P,Display1,8*%
%TO.N,Net-(Display1-Pad10)*%
X58500000Y-71650000D03*
%TO.P,Display1,7*%
%TO.N,Net-(Display1-Pad7)*%
X56500000Y-71650000D03*
%TO.P,Display1,6*%
%TO.N,Net-(Display1-Pad10)*%
X54500000Y-71650000D03*
%TO.P,Display1,5*%
%TO.N,Net-(Display1-Pad5)*%
X52500000Y-71650000D03*
%TO.P,Display1,4*%
%TO.N,Net-(Display1-Pad10)*%
X50500000Y-71650000D03*
%TO.P,Display1,3*%
%TO.N,Net-(Display1-Pad3)*%
X48500000Y-71650000D03*
%TO.P,Display1,2*%
%TO.N,Net-(Display1-Pad10)*%
X46500000Y-71650000D03*
D10*
%TO.P,Display1,1*%
%TO.N,Net-(Display1-Pad1)*%
X44500000Y-71650000D03*
%TD*%
%TO.P,Display2,1*%
%TO.N,Net-(Display2-Pad1)*%
X102500000Y-71650000D03*
D11*
%TO.P,Display2,2*%
%TO.N,Net-(Display1-Pad10)*%
X104500000Y-71650000D03*
%TO.P,Display2,3*%
%TO.N,Net-(Display2-Pad3)*%
X106500000Y-71650000D03*
%TO.P,Display2,4*%
%TO.N,Net-(Display1-Pad10)*%
X108500000Y-71650000D03*
%TO.P,Display2,5*%
%TO.N,Net-(Display2-Pad5)*%
X110500000Y-71650000D03*
%TO.P,Display2,6*%
%TO.N,Net-(Display1-Pad10)*%
X112500000Y-71650000D03*
%TO.P,Display2,7*%
%TO.N,Net-(Display2-Pad7)*%
X114500000Y-71650000D03*
%TO.P,Display2,8*%
%TO.N,Net-(Display1-Pad10)*%
X116500000Y-71650000D03*
%TO.P,Display2,9*%
%TO.N,Net-(Display2-Pad9)*%
X118500000Y-71650000D03*
%TO.P,Display2,10*%
%TO.N,Net-(Display1-Pad10)*%
X120500000Y-71650000D03*
%TO.P,Display2,11*%
%TO.N,Net-(Display2-Pad11)*%
X122500000Y-71650000D03*
%TO.P,Display2,12*%
%TO.N,Net-(Display1-Pad10)*%
X124500000Y-71650000D03*
%TO.P,Display2,13*%
%TO.N,Net-(Display2-Pad13)*%
X126500000Y-71650000D03*
%TO.P,Display2,14*%
%TO.N,Net-(Display1-Pad10)*%
X128500000Y-71650000D03*
%TO.P,Display2,15*%
%TO.N,Net-(Display2-Pad15)*%
X130500000Y-71650000D03*
%TO.P,Display2,16*%
%TO.N,Net-(Display1-Pad10)*%
X132500000Y-71650000D03*
%TO.P,Display2,17*%
%TO.N,Net-(Display2-Pad17)*%
X134500000Y-71650000D03*
%TO.P,Display2,18*%
%TO.N,Net-(Display1-Pad10)*%
X136500000Y-71650000D03*
%TO.P,Display2,19*%
%TO.N,Net-(Display2-Pad19)*%
X138500000Y-71650000D03*
%TO.P,Display2,20*%
%TO.N,Net-(Display1-Pad10)*%
X140500000Y-71650000D03*
%TO.P,Display2,21*%
%TO.N,Net-(Display2-Pad21)*%
X142500000Y-71650000D03*
%TO.P,Display2,22*%
%TO.N,Net-(Display1-Pad10)*%
X144500000Y-71650000D03*
%TO.P,Display2,23*%
%TO.N,Net-(Display2-Pad23)*%
X146500000Y-71650000D03*
%TO.P,Display2,24*%
%TO.N,Net-(Display1-Pad10)*%
X148500000Y-71650000D03*
%TD*%
%TO.P,Display3,24*%
%TO.N,Net-(Display3-Pad10)*%
X90500000Y-86650000D03*
%TO.P,Display3,23*%
%TO.N,Net-(Display1-Pad23)*%
X88500000Y-86650000D03*
%TO.P,Display3,22*%
%TO.N,Net-(Display3-Pad10)*%
X86500000Y-86650000D03*
%TO.P,Display3,21*%
%TO.N,Net-(Display1-Pad21)*%
X84500000Y-86650000D03*
%TO.P,Display3,20*%
%TO.N,Net-(Display3-Pad10)*%
X82500000Y-86650000D03*
%TO.P,Display3,19*%
%TO.N,Net-(Display1-Pad19)*%
X80500000Y-86650000D03*
%TO.P,Display3,18*%
%TO.N,Net-(Display3-Pad10)*%
X78500000Y-86650000D03*
%TO.P,Display3,17*%
%TO.N,Net-(Display1-Pad17)*%
X76500000Y-86650000D03*
%TO.P,Display3,16*%
%TO.N,Net-(Display3-Pad10)*%
X74500000Y-86650000D03*
%TO.P,Display3,15*%
%TO.N,Net-(Display1-Pad15)*%
X72500000Y-86650000D03*
%TO.P,Display3,14*%
%TO.N,Net-(Display3-Pad10)*%
X70500000Y-86650000D03*
%TO.P,Display3,13*%
%TO.N,Net-(Display1-Pad13)*%
X68500000Y-86650000D03*
%TO.P,Display3,12*%
%TO.N,Net-(Display3-Pad10)*%
X66500000Y-86650000D03*
%TO.P,Display3,11*%
%TO.N,Net-(Display1-Pad11)*%
X64500000Y-86650000D03*
%TO.P,Display3,10*%
%TO.N,Net-(Display3-Pad10)*%
X62500000Y-86650000D03*
%TO.P,Display3,9*%
%TO.N,Net-(Display1-Pad9)*%
X60500000Y-86650000D03*
%TO.P,Display3,8*%
%TO.N,Net-(Display3-Pad10)*%
X58500000Y-86650000D03*
%TO.P,Display3,7*%
%TO.N,Net-(Display1-Pad7)*%
X56500000Y-86650000D03*
%TO.P,Display3,6*%
%TO.N,Net-(Display3-Pad10)*%
X54500000Y-86650000D03*
%TO.P,Display3,5*%
%TO.N,Net-(Display1-Pad5)*%
X52500000Y-86650000D03*
%TO.P,Display3,4*%
%TO.N,Net-(Display3-Pad10)*%
X50500000Y-86650000D03*
%TO.P,Display3,3*%
%TO.N,Net-(Display1-Pad3)*%
X48500000Y-86650000D03*
%TO.P,Display3,2*%
%TO.N,Net-(Display3-Pad10)*%
X46500000Y-86650000D03*
D10*
%TO.P,Display3,1*%
%TO.N,Net-(Display1-Pad1)*%
X44500000Y-86650000D03*
%TD*%
D11*
%TO.P,Display4,24*%
%TO.N,Net-(Display3-Pad10)*%
X148500000Y-86650000D03*
%TO.P,Display4,23*%
%TO.N,Net-(Display2-Pad23)*%
X146500000Y-86650000D03*
%TO.P,Display4,22*%
%TO.N,Net-(Display3-Pad10)*%
X144500000Y-86650000D03*
%TO.P,Display4,21*%
%TO.N,Net-(Display2-Pad21)*%
X142500000Y-86650000D03*
%TO.P,Display4,20*%
%TO.N,Net-(Display3-Pad10)*%
X140500000Y-86650000D03*
%TO.P,Display4,19*%
%TO.N,Net-(Display2-Pad19)*%
X138500000Y-86650000D03*
%TO.P,Display4,18*%
%TO.N,Net-(Display3-Pad10)*%
X136500000Y-86650000D03*
%TO.P,Display4,17*%
%TO.N,Net-(Display2-Pad17)*%
X134500000Y-86650000D03*
%TO.P,Display4,16*%
%TO.N,Net-(Display3-Pad10)*%
X132500000Y-86650000D03*
%TO.P,Display4,15*%
%TO.N,Net-(Display2-Pad15)*%
X130500000Y-86650000D03*
%TO.P,Display4,14*%
%TO.N,Net-(Display3-Pad10)*%
X128500000Y-86650000D03*
%TO.P,Display4,13*%
%TO.N,Net-(Display2-Pad13)*%
X126500000Y-86650000D03*
%TO.P,Display4,12*%
%TO.N,Net-(Display3-Pad10)*%
X124500000Y-86650000D03*
%TO.P,Display4,11*%
%TO.N,Net-(Display2-Pad11)*%
X122500000Y-86650000D03*
%TO.P,Display4,10*%
%TO.N,Net-(Display3-Pad10)*%
X120500000Y-86650000D03*
%TO.P,Display4,9*%
%TO.N,Net-(Display2-Pad9)*%
X118500000Y-86650000D03*
%TO.P,Display4,8*%
%TO.N,Net-(Display3-Pad10)*%
X116500000Y-86650000D03*
%TO.P,Display4,7*%
%TO.N,Net-(Display2-Pad7)*%
X114500000Y-86650000D03*
%TO.P,Display4,6*%
%TO.N,Net-(Display3-Pad10)*%
X112500000Y-86650000D03*
%TO.P,Display4,5*%
%TO.N,Net-(Display2-Pad5)*%
X110500000Y-86650000D03*
%TO.P,Display4,4*%
%TO.N,Net-(Display3-Pad10)*%
X108500000Y-86650000D03*
%TO.P,Display4,3*%
%TO.N,Net-(Display2-Pad3)*%
X106500000Y-86650000D03*
%TO.P,Display4,2*%
%TO.N,Net-(Display3-Pad10)*%
X104500000Y-86650000D03*
D10*
%TO.P,Display4,1*%
%TO.N,Net-(Display2-Pad1)*%
X102500000Y-86650000D03*
%TD*%
%TO.P,Display5,1*%
%TO.N,Net-(Display1-Pad1)*%
X44500000Y-101650000D03*
D11*
%TO.P,Display5,2*%
%TO.N,Net-(Display5-Pad10)*%
X46500000Y-101650000D03*
%TO.P,Display5,3*%
%TO.N,Net-(Display1-Pad3)*%
X48500000Y-101650000D03*
%TO.P,Display5,4*%
%TO.N,Net-(Display5-Pad10)*%
X50500000Y-101650000D03*
%TO.P,Display5,5*%
%TO.N,Net-(Display1-Pad5)*%
X52500000Y-101650000D03*
%TO.P,Display5,6*%
%TO.N,Net-(Display5-Pad10)*%
X54500000Y-101650000D03*
%TO.P,Display5,7*%
%TO.N,Net-(Display1-Pad7)*%
X56500000Y-101650000D03*
%TO.P,Display5,8*%
%TO.N,Net-(Display5-Pad10)*%
X58500000Y-101650000D03*
%TO.P,Display5,9*%
%TO.N,Net-(Display1-Pad9)*%
X60500000Y-101650000D03*
%TO.P,Display5,10*%
%TO.N,Net-(Display5-Pad10)*%
X62500000Y-101650000D03*
%TO.P,Display5,11*%
%TO.N,Net-(Display1-Pad11)*%
X64500000Y-101650000D03*
%TO.P,Display5,12*%
%TO.N,Net-(Display5-Pad10)*%
X66500000Y-101650000D03*
%TO.P,Display5,13*%
%TO.N,Net-(Display1-Pad13)*%
X68500000Y-101650000D03*
%TO.P,Display5,14*%
%TO.N,Net-(Display5-Pad10)*%
X70500000Y-101650000D03*
%TO.P,Display5,15*%
%TO.N,Net-(Display1-Pad15)*%
X72500000Y-101650000D03*
%TO.P,Display5,16*%
%TO.N,Net-(Display5-Pad10)*%
X74500000Y-101650000D03*
%TO.P,Display5,17*%
%TO.N,Net-(Display1-Pad17)*%
X76500000Y-101650000D03*
%TO.P,Display5,18*%
%TO.N,Net-(Display5-Pad10)*%
X78500000Y-101650000D03*
%TO.P,Display5,19*%
%TO.N,Net-(Display1-Pad19)*%
X80500000Y-101650000D03*
%TO.P,Display5,20*%
%TO.N,Net-(Display5-Pad10)*%
X82500000Y-101650000D03*
%TO.P,Display5,21*%
%TO.N,Net-(Display1-Pad21)*%
X84500000Y-101650000D03*
%TO.P,Display5,22*%
%TO.N,Net-(Display5-Pad10)*%
X86500000Y-101650000D03*
%TO.P,Display5,23*%
%TO.N,Net-(Display1-Pad23)*%
X88500000Y-101650000D03*
%TO.P,Display5,24*%
%TO.N,Net-(Display5-Pad10)*%
X90500000Y-101650000D03*
%TD*%
D13*
%TO.P,J1,1*%
%TO.N,Net-(J1-Pad1)*%
X36500000Y-26500000D03*
D14*
%TO.P,J1,2*%
%TO.N,Net-(J1-Pad2)*%
X36500000Y-23960000D03*
%TO.P,J1,3*%
%TO.N,Net-(J1-Pad3)*%
X36500000Y-21420000D03*
%TO.P,J1,4*%
%TO.N,+5V*%
X36500000Y-18880000D03*
%TO.P,J1,5*%
%TO.N,GND*%
X36500000Y-16340000D03*
%TD*%
D12*
%TO.P,R1,1*%
%TO.N,Net-(R1-Pad1)*%
X45750000Y-52750000D03*
D15*
%TO.P,R1,2*%
%TO.N,Net-(Display1-Pad1)*%
X45750000Y-62910000D03*
%TD*%
%TO.P,R2,2*%
%TO.N,Net-(Display1-Pad3)*%
X49560000Y-62910000D03*
D12*
%TO.P,R2,1*%
%TO.N,Net-(R2-Pad1)*%
X49560000Y-52750000D03*
%TD*%
%TO.P,R3,1*%
%TO.N,Net-(R3-Pad1)*%
X53370000Y-52750000D03*
D15*
%TO.P,R3,2*%
%TO.N,Net-(Display1-Pad5)*%
X53370000Y-62910000D03*
%TD*%
D12*
%TO.P,R4,1*%
%TO.N,Net-(R4-Pad1)*%
X57180000Y-52750000D03*
D15*
%TO.P,R4,2*%
%TO.N,Net-(Display1-Pad7)*%
X57180000Y-62910000D03*
%TD*%
D12*
%TO.P,R5,1*%
%TO.N,Net-(R5-Pad1)*%
X60990000Y-52750000D03*
D15*
%TO.P,R5,2*%
%TO.N,Net-(Display1-Pad9)*%
X60990000Y-62910000D03*
%TD*%
%TO.P,R6,2*%
%TO.N,Net-(Display1-Pad11)*%
X64800000Y-62910000D03*
D12*
%TO.P,R6,1*%
%TO.N,Net-(R6-Pad1)*%
X64800000Y-52750000D03*
%TD*%
%TO.P,R7,1*%
%TO.N,Net-(R7-Pad1)*%
X68610000Y-52750000D03*
D15*
%TO.P,R7,2*%
%TO.N,Net-(Display1-Pad13)*%
X68610000Y-62910000D03*
%TD*%
%TO.P,R8,2*%
%TO.N,Net-(Display1-Pad15)*%
X72420000Y-62910000D03*
D12*
%TO.P,R8,1*%
%TO.N,Net-(R8-Pad1)*%
X72420000Y-52750000D03*
%TD*%
D15*
%TO.P,R9,2*%
%TO.N,Net-(Display1-Pad17)*%
X76230000Y-62910000D03*
D12*
%TO.P,R9,1*%
%TO.N,Net-(R9-Pad1)*%
X76230000Y-52750000D03*
%TD*%
%TO.P,R10,1*%
%TO.N,Net-(R10-Pad1)*%
X80040000Y-52750000D03*
D15*
%TO.P,R10,2*%
%TO.N,Net-(Display1-Pad19)*%
X80040000Y-62910000D03*
%TD*%
%TO.P,R11,2*%
%TO.N,Net-(Display1-Pad21)*%
X83850000Y-62910000D03*
D12*
%TO.P,R11,1*%
%TO.N,Net-(R11-Pad1)*%
X83850000Y-52750000D03*
%TD*%
%TO.P,R12,1*%
%TO.N,Net-(R12-Pad1)*%
X87660000Y-52750000D03*
D15*
%TO.P,R12,2*%
%TO.N,Net-(Display1-Pad23)*%
X87660000Y-62910000D03*
%TD*%
D12*
%TO.P,R13,1*%
%TO.N,Net-(R13-Pad1)*%
X103750000Y-52500000D03*
D15*
%TO.P,R13,2*%
%TO.N,Net-(Display2-Pad1)*%
X103750000Y-62660000D03*
%TD*%
%TO.P,R14,2*%
%TO.N,Net-(Display2-Pad3)*%
X107560000Y-62660000D03*
D12*
%TO.P,R14,1*%
%TO.N,Net-(R14-Pad1)*%
X107560000Y-52500000D03*
%TD*%
D15*
%TO.P,R15,2*%
%TO.N,Net-(Display2-Pad5)*%
X111370000Y-62660000D03*
D12*
%TO.P,R15,1*%
%TO.N,Net-(R15-Pad1)*%
X111370000Y-52500000D03*
%TD*%
%TO.P,R16,1*%
%TO.N,Net-(R16-Pad1)*%
X115180000Y-52500000D03*
D15*
%TO.P,R16,2*%
%TO.N,Net-(Display2-Pad7)*%
X115180000Y-62660000D03*
%TD*%
%TO.P,R17,2*%
%TO.N,Net-(Display2-Pad9)*%
X118990000Y-62660000D03*
D12*
%TO.P,R17,1*%
%TO.N,Net-(R17-Pad1)*%
X118990000Y-52500000D03*
%TD*%
%TO.P,R18,1*%
%TO.N,Net-(R18-Pad1)*%
X122800000Y-52500000D03*
D15*
%TO.P,R18,2*%
%TO.N,Net-(Display2-Pad11)*%
X122800000Y-62660000D03*
%TD*%
%TO.P,R19,2*%
%TO.N,Net-(Display2-Pad13)*%
X126610000Y-62660000D03*
D12*
%TO.P,R19,1*%
%TO.N,Net-(R19-Pad1)*%
X126610000Y-52500000D03*
%TD*%
%TO.P,R20,1*%
%TO.N,Net-(R20-Pad1)*%
X130420000Y-52500000D03*
D15*
%TO.P,R20,2*%
%TO.N,Net-(Display2-Pad15)*%
X130420000Y-62660000D03*
%TD*%
%TO.P,R21,2*%
%TO.N,Net-(Display2-Pad17)*%
X134230000Y-62660000D03*
D12*
%TO.P,R21,1*%
%TO.N,Net-(R21-Pad1)*%
X134230000Y-52500000D03*
%TD*%
%TO.P,R22,1*%
%TO.N,Net-(R22-Pad1)*%
X138040000Y-52500000D03*
D15*
%TO.P,R22,2*%
%TO.N,Net-(Display2-Pad19)*%
X138040000Y-62660000D03*
%TD*%
%TO.P,R23,2*%
%TO.N,Net-(Display2-Pad21)*%
X141850000Y-62660000D03*
D12*
%TO.P,R23,1*%
%TO.N,Net-(R23-Pad1)*%
X141850000Y-52500000D03*
%TD*%
D15*
%TO.P,R24,2*%
%TO.N,Net-(Display2-Pad23)*%
X145660000Y-62660000D03*
D12*
%TO.P,R24,1*%
%TO.N,Net-(R24-Pad1)*%
X145660000Y-52500000D03*
%TD*%
D16*
%TO.P,U1,16*%
%TO.N,+5V*%
X44500000Y-27380000D03*
%TO.P,U1,8*%
%TO.N,GND*%
X62280000Y-35000000D03*
%TO.P,U1,15*%
%TO.N,Net-(R1-Pad1)*%
X47040000Y-27380000D03*
%TO.P,U1,7*%
%TO.N,Net-(R8-Pad1)*%
X59740000Y-35000000D03*
%TO.P,U1,14*%
%TO.N,Net-(J1-Pad3)*%
X49580000Y-27380000D03*
%TO.P,U1,6*%
%TO.N,Net-(R7-Pad1)*%
X57200000Y-35000000D03*
%TO.P,U1,13*%
%TO.N,GND*%
X52120000Y-27380000D03*
%TO.P,U1,5*%
%TO.N,Net-(R6-Pad1)*%
X54660000Y-35000000D03*
%TO.P,U1,12*%
%TO.N,Net-(J1-Pad2)*%
X54660000Y-27380000D03*
%TO.P,U1,4*%
%TO.N,Net-(R5-Pad1)*%
X52120000Y-35000000D03*
%TO.P,U1,11*%
%TO.N,Net-(J1-Pad1)*%
X57200000Y-27380000D03*
%TO.P,U1,3*%
%TO.N,Net-(R4-Pad1)*%
X49580000Y-35000000D03*
%TO.P,U1,10*%
%TO.N,+5V*%
X59740000Y-27380000D03*
%TO.P,U1,2*%
%TO.N,Net-(R3-Pad1)*%
X47040000Y-35000000D03*
%TO.P,U1,9*%
%TO.N,Net-(U1-Pad9)*%
X62280000Y-27380000D03*
D17*
%TO.P,U1,1*%
%TO.N,Net-(R2-Pad1)*%
X44500000Y-35000000D03*
%TD*%
%TO.P,U2,1*%
%TO.N,Net-(R10-Pad1)*%
X71500000Y-35000000D03*
D16*
%TO.P,U2,9*%
%TO.N,Net-(U2-Pad9)*%
X89280000Y-27380000D03*
%TO.P,U2,2*%
%TO.N,Net-(R11-Pad1)*%
X74040000Y-35000000D03*
%TO.P,U2,10*%
%TO.N,+5V*%
X86740000Y-27380000D03*
%TO.P,U2,3*%
%TO.N,Net-(R12-Pad1)*%
X76580000Y-35000000D03*
%TO.P,U2,11*%
%TO.N,Net-(J1-Pad1)*%
X84200000Y-27380000D03*
%TO.P,U2,4*%
%TO.N,Net-(R13-Pad1)*%
X79120000Y-35000000D03*
%TO.P,U2,12*%
%TO.N,Net-(J1-Pad2)*%
X81660000Y-27380000D03*
%TO.P,U2,5*%
%TO.N,Net-(R14-Pad1)*%
X81660000Y-35000000D03*
%TO.P,U2,13*%
%TO.N,GND*%
X79120000Y-27380000D03*
%TO.P,U2,6*%
%TO.N,Net-(R15-Pad1)*%
X84200000Y-35000000D03*
%TO.P,U2,14*%
%TO.N,Net-(U1-Pad9)*%
X76580000Y-27380000D03*
%TO.P,U2,7*%
%TO.N,Net-(R16-Pad1)*%
X86740000Y-35000000D03*
%TO.P,U2,15*%
%TO.N,Net-(R9-Pad1)*%
X74040000Y-27380000D03*
%TO.P,U2,8*%
%TO.N,GND*%
X89280000Y-35000000D03*
%TO.P,U2,16*%
%TO.N,+5V*%
X71500000Y-27380000D03*
%TD*%
%TO.P,U3,16*%
%TO.N,+5V*%
X100500000Y-27380000D03*
%TO.P,U3,8*%
%TO.N,GND*%
X118280000Y-35000000D03*
%TO.P,U3,15*%
%TO.N,Net-(R17-Pad1)*%
X103040000Y-27380000D03*
%TO.P,U3,7*%
%TO.N,Net-(R24-Pad1)*%
X115740000Y-35000000D03*
%TO.P,U3,14*%
%TO.N,Net-(U2-Pad9)*%
X105580000Y-27380000D03*
%TO.P,U3,6*%
%TO.N,Net-(R23-Pad1)*%
X113200000Y-35000000D03*
%TO.P,U3,13*%
%TO.N,GND*%
X108120000Y-27380000D03*
%TO.P,U3,5*%
%TO.N,Net-(R22-Pad1)*%
X110660000Y-35000000D03*
%TO.P,U3,12*%
%TO.N,Net-(J1-Pad2)*%
X110660000Y-27380000D03*
%TO.P,U3,4*%
%TO.N,Net-(R21-Pad1)*%
X108120000Y-35000000D03*
%TO.P,U3,11*%
%TO.N,Net-(J1-Pad1)*%
X113200000Y-27380000D03*
%TO.P,U3,3*%
%TO.N,Net-(R20-Pad1)*%
X105580000Y-35000000D03*
%TO.P,U3,10*%
%TO.N,+5V*%
X115740000Y-27380000D03*
%TO.P,U3,2*%
%TO.N,Net-(R19-Pad1)*%
X103040000Y-35000000D03*
%TO.P,U3,9*%
%TO.N,Net-(U3-Pad9)*%
X118280000Y-27380000D03*
D17*
%TO.P,U3,1*%
%TO.N,Net-(R18-Pad1)*%
X100500000Y-35000000D03*
%TD*%
%TO.P,U4,1*%
%TO.N,Net-(Display3-Pad10)*%
X130500000Y-35000000D03*
D16*
%TO.P,U4,9*%
%TO.N,Net-(U4-Pad9)*%
X148280000Y-27380000D03*
%TO.P,U4,2*%
%TO.N,Net-(Display5-Pad10)*%
X133040000Y-35000000D03*
%TO.P,U4,10*%
%TO.N,+5V*%
X145740000Y-27380000D03*
%TO.P,U4,3*%
%TO.N,Net-(U4-Pad3)*%
X135580000Y-35000000D03*
%TO.P,U4,11*%
%TO.N,Net-(J1-Pad1)*%
X143200000Y-27380000D03*
%TO.P,U4,4*%
%TO.N,Net-(U4-Pad4)*%
X138120000Y-35000000D03*
%TO.P,U4,12*%
%TO.N,Net-(J1-Pad2)*%
X140660000Y-27380000D03*
%TO.P,U4,5*%
%TO.N,Net-(U4-Pad5)*%
X140660000Y-35000000D03*
%TO.P,U4,13*%
%TO.N,GND*%
X138120000Y-27380000D03*
%TO.P,U4,6*%
%TO.N,Net-(U4-Pad6)*%
X143200000Y-35000000D03*
%TO.P,U4,14*%
%TO.N,Net-(U3-Pad9)*%
X135580000Y-27380000D03*
%TO.P,U4,7*%
%TO.N,Net-(U4-Pad7)*%
X145740000Y-35000000D03*
%TO.P,U4,15*%
%TO.N,Net-(Display1-Pad10)*%
X133040000Y-27380000D03*
%TO.P,U4,8*%
%TO.N,GND*%
X148280000Y-35000000D03*
%TO.P,U4,16*%
%TO.N,+5V*%
X130500000Y-27380000D03*
%TD*%
D18*
%TO.N,Net-(Display1-Pad10)*%
X122250000Y-37250000D03*
%TO.N,Net-(R1-Pad1)*%
X38000000Y-29250000D03*
X47040000Y-24290000D03*
%TO.N,Net-(R9-Pad1)*%
X66250000Y-37250000D03*
X66250000Y-37250000D03*
%TO.N,Net-(R17-Pad1)*%
X94250000Y-37000000D03*
%TD*%
D19*
%TO.N,GND*%
X108120000Y-16250000D02*
X100500000Y-16250000D01*
X79120000Y-16370000D02*
X79000000Y-16250000D01*
X79000000Y-16250000D02*
X71500000Y-16250000D01*
X79120000Y-27380000D02*
X79120000Y-16370000D01*
X52120000Y-16250000D02*
X44500000Y-16250000D01*
X52120000Y-27380000D02*
X52120000Y-16250000D01*
X130500000Y-16250000D02*
X138120000Y-16250000D01*
X138120000Y-16250000D02*
X138120000Y-27380000D01*
X44410000Y-16340000D02*
X44500000Y-16250000D01*
X36500000Y-16340000D02*
X44410000Y-16340000D01*
X108120000Y-24880000D02*
X108120000Y-16250000D01*
X108120000Y-27380000D02*
X108120000Y-24880000D01*
X151000000Y-19000000D02*
X148250000Y-16250000D01*
X151000000Y-30080000D02*
X151000000Y-19000000D01*
X148250000Y-16250000D02*
X130500000Y-16250000D01*
X148280000Y-32800000D02*
X151000000Y-30080000D01*
X148280000Y-35000000D02*
X148280000Y-32800000D01*
X108120000Y-22750000D02*
X108120000Y-24880000D01*
X118280000Y-35000000D02*
X120500000Y-32780000D01*
X120500000Y-32780000D02*
X120500000Y-16250000D01*
X120500000Y-16250000D02*
X100500000Y-16250000D01*
X130500000Y-16250000D02*
X120500000Y-16250000D01*
X100500000Y-16250000D02*
X93500000Y-16250000D01*
X89280000Y-35000000D02*
X89280000Y-34970000D01*
X89280000Y-34970000D02*
X91500000Y-32750000D01*
X91500000Y-32750000D02*
X91500000Y-16250000D01*
X93500000Y-16250000D02*
X91500000Y-16250000D01*
X62280000Y-35000000D02*
X62280000Y-34970000D01*
X62280000Y-34970000D02*
X64500000Y-32750000D01*
X64500000Y-32750000D02*
X64500000Y-27750000D01*
X64500000Y-27750000D02*
X64500000Y-16250000D01*
X64500000Y-16250000D02*
X44500000Y-16250000D01*
X91500000Y-16250000D02*
X64500000Y-16250000D01*
%TO.N,Net-(Display1-Pad10)*%
X49124999Y-73025001D02*
X50500000Y-71650000D01*
X47875001Y-73025001D02*
X49124999Y-73025001D01*
X46500000Y-71650000D02*
X47875001Y-73025001D01*
X53124999Y-73025001D02*
X54500000Y-71650000D01*
X51839999Y-73025001D02*
X53124999Y-73025001D01*
X51124999Y-72310001D02*
X51839999Y-73025001D01*
X51124999Y-71874999D02*
X51124999Y-72310001D01*
X50900000Y-71650000D02*
X51124999Y-71874999D01*
X50500000Y-71650000D02*
X50900000Y-71650000D01*
X55875001Y-73025001D02*
X57124999Y-73025001D01*
X57124999Y-73025001D02*
X58500000Y-71650000D01*
X54500000Y-71650000D02*
X55875001Y-73025001D01*
X61124999Y-73025001D02*
X62500000Y-71650000D01*
X59875001Y-73025001D02*
X61124999Y-73025001D01*
X58500000Y-71650000D02*
X59875001Y-73025001D01*
X65124999Y-73025001D02*
X66500000Y-71650000D01*
X63875001Y-73025001D02*
X65124999Y-73025001D01*
X62500000Y-71650000D02*
X63875001Y-73025001D01*
X69124999Y-73025001D02*
X70500000Y-71650000D01*
X67875001Y-73025001D02*
X69124999Y-73025001D01*
X66500000Y-71650000D02*
X67875001Y-73025001D01*
X73124999Y-73025001D02*
X74500000Y-71650000D01*
X71875001Y-73025001D02*
X73124999Y-73025001D01*
X70500000Y-71650000D02*
X71875001Y-73025001D01*
X77124999Y-73025001D02*
X78500000Y-71650000D01*
X75875001Y-73025001D02*
X77124999Y-73025001D01*
X74500000Y-71650000D02*
X75875001Y-73025001D01*
X81124999Y-73025001D02*
X82500000Y-71650000D01*
X79875001Y-73025001D02*
X81124999Y-73025001D01*
X78500000Y-71650000D02*
X79875001Y-73025001D01*
X85124999Y-73025001D02*
X86500000Y-71650000D01*
X83875001Y-73025001D02*
X85124999Y-73025001D01*
X82500000Y-71650000D02*
X83875001Y-73025001D01*
X87875001Y-73025001D02*
X89124999Y-73025001D01*
X89124999Y-73025001D02*
X90500000Y-71650000D01*
X86500000Y-71650000D02*
X87875001Y-73025001D01*
X104500000Y-72260002D02*
X104500000Y-71650000D01*
X103735001Y-73025001D02*
X104500000Y-72260002D01*
X91875001Y-73025001D02*
X103735001Y-73025001D01*
X90500000Y-71650000D02*
X91875001Y-73025001D01*
X107124999Y-73025001D02*
X108500000Y-71650000D01*
X105839999Y-73025001D02*
X107124999Y-73025001D01*
X105124999Y-72310001D02*
X105839999Y-73025001D01*
X105124999Y-71874999D02*
X105124999Y-72310001D01*
X104900000Y-71650000D02*
X105124999Y-71874999D01*
X104500000Y-71650000D02*
X104900000Y-71650000D01*
X109839999Y-73025001D02*
X111124999Y-73025001D01*
X109124999Y-72310001D02*
X109839999Y-73025001D01*
X109124999Y-71874999D02*
X109124999Y-72310001D01*
X108900000Y-71650000D02*
X109124999Y-71874999D01*
X111124999Y-73025001D02*
X112500000Y-71650000D01*
X108500000Y-71650000D02*
X108900000Y-71650000D01*
X115124999Y-73025001D02*
X116500000Y-71650000D01*
X113875001Y-73025001D02*
X115124999Y-73025001D01*
X112500000Y-71650000D02*
X113875001Y-73025001D01*
X117875001Y-73025001D02*
X119124999Y-73025001D01*
X119124999Y-73025001D02*
X120500000Y-71650000D01*
X116500000Y-71650000D02*
X117875001Y-73025001D01*
X123124999Y-73025001D02*
X124500000Y-71650000D01*
X121875001Y-73025001D02*
X123124999Y-73025001D01*
X120500000Y-71650000D02*
X121875001Y-73025001D01*
X127124999Y-73025001D02*
X128500000Y-71650000D01*
X125875001Y-73025001D02*
X127124999Y-73025001D01*
X124500000Y-71650000D02*
X125875001Y-73025001D01*
X131124999Y-73025001D02*
X132500000Y-71650000D01*
X129839999Y-73025001D02*
X131124999Y-73025001D01*
X129124999Y-72310001D02*
X129839999Y-73025001D01*
X129124999Y-71874999D02*
X129124999Y-72310001D01*
X128900000Y-71650000D02*
X129124999Y-71874999D01*
X128500000Y-71650000D02*
X128900000Y-71650000D01*
X135124999Y-73025001D02*
X136500000Y-71650000D01*
X133875001Y-73025001D02*
X135124999Y-73025001D01*
X132500000Y-71650000D02*
X133875001Y-73025001D01*
X137875001Y-73025001D02*
X139124999Y-73025001D01*
X139124999Y-73025001D02*
X140500000Y-71650000D01*
X136500000Y-71650000D02*
X137875001Y-73025001D01*
X143124999Y-73025001D02*
X144500000Y-71650000D01*
X141875001Y-73025001D02*
X143124999Y-73025001D01*
X140500000Y-71650000D02*
X141875001Y-73025001D01*
X147124999Y-73025001D02*
X148500000Y-71650000D01*
X145839999Y-73025001D02*
X147124999Y-73025001D01*
X145124999Y-72310001D02*
X145839999Y-73025001D01*
X145124999Y-71874999D02*
X145124999Y-72310001D01*
X144900000Y-71650000D02*
X145124999Y-71874999D01*
X144500000Y-71650000D02*
X144900000Y-71650000D01*
X122250000Y-37250000D02*
X122250000Y-37250000D01*
X122250000Y-29750000D02*
X122250000Y-37250000D01*
X127410000Y-24590000D02*
X122250000Y-29750000D01*
X133040000Y-25790000D02*
X131840000Y-24590000D01*
X131840000Y-24590000D02*
X127410000Y-24590000D01*
X133040000Y-27380000D02*
X133040000Y-25790000D01*
%TO.N,Net-(Display3-Pad10)*%
X145875001Y-88025001D02*
X144500000Y-86650000D01*
X147124999Y-88025001D02*
X145875001Y-88025001D01*
X148500000Y-86650000D02*
X147124999Y-88025001D01*
X141875001Y-88025001D02*
X140500000Y-86650000D01*
X143160001Y-88025001D02*
X141875001Y-88025001D01*
X143875001Y-87310001D02*
X143160001Y-88025001D01*
X143875001Y-86874999D02*
X143875001Y-87310001D01*
X144100000Y-86650000D02*
X143875001Y-86874999D01*
X144500000Y-86650000D02*
X144100000Y-86650000D01*
X137875001Y-88025001D02*
X136500000Y-86650000D01*
X139124999Y-88025001D02*
X137875001Y-88025001D01*
X140500000Y-86650000D02*
X139124999Y-88025001D01*
X133875001Y-88025001D02*
X132500000Y-86650000D01*
X135124999Y-88025001D02*
X133875001Y-88025001D01*
X136500000Y-86650000D02*
X135124999Y-88025001D01*
X129875001Y-88025001D02*
X128500000Y-86650000D01*
X131124999Y-88025001D02*
X129875001Y-88025001D01*
X132500000Y-86650000D02*
X131124999Y-88025001D01*
X127124999Y-88025001D02*
X125875001Y-88025001D01*
X125875001Y-88025001D02*
X124500000Y-86650000D01*
X128500000Y-86650000D02*
X127124999Y-88025001D01*
X121875001Y-88025001D02*
X120500000Y-86650000D01*
X123124999Y-88025001D02*
X121875001Y-88025001D01*
X124500000Y-86650000D02*
X123124999Y-88025001D01*
X117875001Y-88025001D02*
X116500000Y-86650000D01*
X119124999Y-88025001D02*
X117875001Y-88025001D01*
X120500000Y-86650000D02*
X119124999Y-88025001D01*
X113875001Y-88025001D02*
X112500000Y-86650000D01*
X115124999Y-88025001D02*
X113875001Y-88025001D01*
X116500000Y-86650000D02*
X115124999Y-88025001D01*
X109875001Y-88025001D02*
X108500000Y-86650000D01*
X111124999Y-88025001D02*
X109875001Y-88025001D01*
X112500000Y-86650000D02*
X111124999Y-88025001D01*
X105875001Y-88025001D02*
X104500000Y-86650000D01*
X107124999Y-88025001D02*
X105875001Y-88025001D01*
X108500000Y-86650000D02*
X107124999Y-88025001D01*
X91875001Y-88025001D02*
X90500000Y-86650000D01*
X104079593Y-88025001D02*
X91875001Y-88025001D01*
X104500000Y-87604594D02*
X104079593Y-88025001D01*
X104500000Y-86650000D02*
X104500000Y-87604594D01*
X87875001Y-88025001D02*
X86500000Y-86650000D01*
X89124999Y-88025001D02*
X87875001Y-88025001D01*
X90500000Y-86650000D02*
X89124999Y-88025001D01*
X83875001Y-88025001D02*
X82500000Y-86650000D01*
X85124999Y-88025001D02*
X83875001Y-88025001D01*
X86500000Y-86650000D02*
X85124999Y-88025001D01*
X79875001Y-88025001D02*
X78500000Y-86650000D01*
X81124999Y-88025001D02*
X79875001Y-88025001D01*
X82500000Y-86650000D02*
X81124999Y-88025001D01*
X75875001Y-88025001D02*
X74500000Y-86650000D01*
X77160001Y-88025001D02*
X75875001Y-88025001D01*
X77875001Y-87310001D02*
X77160001Y-88025001D01*
X77875001Y-86874999D02*
X77875001Y-87310001D01*
X78100000Y-86650000D02*
X77875001Y-86874999D01*
X78500000Y-86650000D02*
X78100000Y-86650000D01*
X71875001Y-88025001D02*
X70500000Y-86650000D01*
X73124999Y-88025001D02*
X71875001Y-88025001D01*
X74500000Y-86650000D02*
X73124999Y-88025001D01*
X67875001Y-88025001D02*
X66500000Y-86650000D01*
X69124999Y-88025001D02*
X67875001Y-88025001D01*
X70500000Y-86650000D02*
X69124999Y-88025001D01*
X65124999Y-88025001D02*
X63875001Y-88025001D01*
X63875001Y-88025001D02*
X62500000Y-86650000D01*
X66500000Y-86650000D02*
X65124999Y-88025001D01*
X59875001Y-88025001D02*
X58500000Y-86650000D01*
X61124999Y-88025001D02*
X59875001Y-88025001D01*
X62500000Y-86650000D02*
X61124999Y-88025001D01*
X55875001Y-88025001D02*
X54500000Y-86650000D01*
X57124999Y-88025001D02*
X55875001Y-88025001D01*
X58500000Y-86650000D02*
X57124999Y-88025001D01*
X53124999Y-88025001D02*
X51875001Y-88025001D01*
X51875001Y-88025001D02*
X50500000Y-86650000D01*
X54500000Y-86650000D02*
X53124999Y-88025001D01*
X47875001Y-88025001D02*
X46500000Y-86650000D01*
X49124999Y-88025001D02*
X47875001Y-88025001D01*
X50500000Y-86650000D02*
X49124999Y-88025001D01*
X148900000Y-86650000D02*
X148500000Y-86650000D01*
%TO.N,Net-(Display5-Pad10)*%
X47875001Y-103025001D02*
X49124999Y-103025001D01*
X49124999Y-103025001D02*
X50500000Y-101650000D01*
X46500000Y-101650000D02*
X47875001Y-103025001D01*
X53124999Y-103025001D02*
X54500000Y-101650000D01*
X51875001Y-103025001D02*
X53124999Y-103025001D01*
X50500000Y-101650000D02*
X51875001Y-103025001D01*
X57124999Y-103025001D02*
X58500000Y-101650000D01*
X55875001Y-103025001D02*
X57124999Y-103025001D01*
X54500000Y-101650000D02*
X55875001Y-103025001D01*
X61124999Y-103025001D02*
X62500000Y-101650000D01*
X59875001Y-103025001D02*
X61124999Y-103025001D01*
X58500000Y-101650000D02*
X59875001Y-103025001D01*
X65124999Y-103025001D02*
X66500000Y-101650000D01*
X63839999Y-103025001D02*
X65124999Y-103025001D01*
X63124999Y-102310001D02*
X63839999Y-103025001D01*
X62900000Y-101650000D02*
X63124999Y-101874999D01*
X63124999Y-101874999D02*
X63124999Y-102310001D01*
X62500000Y-101650000D02*
X62900000Y-101650000D01*
X69124999Y-103025001D02*
X70500000Y-101650000D01*
X67875001Y-103025001D02*
X69124999Y-103025001D01*
X66500000Y-101650000D02*
X67875001Y-103025001D01*
X73124999Y-103025001D02*
X74500000Y-101650000D01*
X71839999Y-103025001D02*
X73124999Y-103025001D01*
X71124999Y-102310001D02*
X71839999Y-103025001D01*
X71124999Y-101874999D02*
X71124999Y-102310001D01*
X70900000Y-101650000D02*
X71124999Y-101874999D01*
X70500000Y-101650000D02*
X70900000Y-101650000D01*
X77124999Y-103025001D02*
X78500000Y-101650000D01*
X75875001Y-103025001D02*
X77124999Y-103025001D01*
X74500000Y-101650000D02*
X75875001Y-103025001D01*
X81160001Y-103025001D02*
X82750000Y-101435002D01*
X79875001Y-103025001D02*
X81160001Y-103025001D01*
X78500000Y-101650000D02*
X79875001Y-103025001D01*
X82714998Y-101435002D02*
X82500000Y-101650000D01*
X82750000Y-101435002D02*
X82714998Y-101435002D01*
X83875001Y-103025001D02*
X85124999Y-103025001D01*
X85124999Y-103025001D02*
X86500000Y-101650000D01*
X82500000Y-101650000D02*
X83875001Y-103025001D01*
X89124999Y-103025001D02*
X90500000Y-101650000D01*
X87875001Y-103025001D02*
X89124999Y-103025001D01*
X86500000Y-101650000D02*
X87875001Y-103025001D01*
X103735001Y-103025001D02*
X104500000Y-102260002D01*
X104500000Y-102260002D02*
X104500000Y-101650000D01*
X91875001Y-103025001D02*
X103735001Y-103025001D01*
X90500000Y-101650000D02*
X91875001Y-103025001D01*
X107124999Y-103025001D02*
X108500000Y-101650000D01*
X105875001Y-103025001D02*
X107124999Y-103025001D01*
X104500000Y-101650000D02*
X105875001Y-103025001D01*
X111124999Y-103025001D02*
X112500000Y-101650000D01*
X109875001Y-103025001D02*
X111124999Y-103025001D01*
X108500000Y-101650000D02*
X109875001Y-103025001D01*
X113839999Y-103025001D02*
X115124999Y-103025001D01*
X113124999Y-102310001D02*
X113839999Y-103025001D01*
X115124999Y-103025001D02*
X116500000Y-101650000D01*
X113124999Y-101874999D02*
X113124999Y-102310001D01*
X112900000Y-101650000D02*
X113124999Y-101874999D01*
X112500000Y-101650000D02*
X112900000Y-101650000D01*
X119124999Y-103025001D02*
X120500000Y-101650000D01*
X117839999Y-103025001D02*
X119124999Y-103025001D01*
X117124999Y-102310001D02*
X117839999Y-103025001D01*
X117124999Y-101874999D02*
X117124999Y-102310001D01*
X116900000Y-101650000D02*
X117124999Y-101874999D01*
X116500000Y-101650000D02*
X116900000Y-101650000D01*
X123124999Y-103025001D02*
X124500000Y-101650000D01*
X121875001Y-103025001D02*
X123124999Y-103025001D01*
X120500000Y-101650000D02*
X121875001Y-103025001D01*
X125875001Y-103025001D02*
X127124999Y-103025001D01*
X127124999Y-103025001D02*
X128500000Y-101650000D01*
X124500000Y-101650000D02*
X125875001Y-103025001D01*
X131124999Y-103025001D02*
X132500000Y-101650000D01*
X129839999Y-103025001D02*
X131124999Y-103025001D01*
X129124999Y-102310001D02*
X129839999Y-103025001D01*
X129124999Y-101874999D02*
X129124999Y-102310001D01*
X128900000Y-101650000D02*
X129124999Y-101874999D01*
X128500000Y-101650000D02*
X128900000Y-101650000D01*
X135124999Y-103025001D02*
X136500000Y-101650000D01*
X133839999Y-103025001D02*
X135124999Y-103025001D01*
X133124999Y-102310001D02*
X133839999Y-103025001D01*
X133124999Y-101874999D02*
X133124999Y-102310001D01*
X132900000Y-101650000D02*
X133124999Y-101874999D01*
X132500000Y-101650000D02*
X132900000Y-101650000D01*
X139124999Y-103025001D02*
X140500000Y-101650000D01*
X137875001Y-103025001D02*
X139124999Y-103025001D01*
X136500000Y-101650000D02*
X137875001Y-103025001D01*
X141875001Y-103025001D02*
X143124999Y-103025001D01*
X143124999Y-103025001D02*
X144500000Y-101650000D01*
X140500000Y-101650000D02*
X141875001Y-103025001D01*
X147124999Y-103025001D02*
X148500000Y-101650000D01*
X145875001Y-103025001D02*
X147124999Y-103025001D01*
X144500000Y-101650000D02*
X145875001Y-103025001D01*
%TO.N,Net-(J1-Pad3)*%
X36500000Y-21420000D02*
X36580000Y-21500000D01*
%TO.N,Net-(J1-Pad2)*%
X92751332Y-39750000D02*
X93750000Y-39750000D01*
X85250000Y-39750000D02*
X93750000Y-39750000D01*
X81361338Y-39750000D02*
X85250000Y-39750000D01*
X77500000Y-39750000D02*
X85250000Y-39750000D01*
X77500000Y-39750000D02*
X79611338Y-39750000D01*
X68750000Y-34489998D02*
X68750000Y-39750000D01*
X61750000Y-39750000D02*
X68750000Y-39750000D01*
X77040000Y-32000000D02*
X71239998Y-32000000D01*
X71239998Y-32000000D02*
X68750000Y-34489998D01*
X81660000Y-27380000D02*
X77040000Y-32000000D01*
X68750000Y-39750000D02*
X77500000Y-39750000D01*
X97000000Y-39750000D02*
X93750000Y-39750000D01*
X97000000Y-33000000D02*
X97000000Y-39750000D01*
X97750000Y-32250000D02*
X97000000Y-33000000D01*
X105790000Y-32250000D02*
X97750000Y-32250000D01*
X110660000Y-27380000D02*
X105790000Y-32250000D01*
X129500000Y-31750000D02*
X136290000Y-31750000D01*
X136290000Y-31750000D02*
X140660000Y-27380000D01*
X129500000Y-31750000D02*
X126000000Y-35250000D01*
X126000000Y-35250000D02*
X126000000Y-39500000D01*
X125750000Y-39750000D02*
X119250000Y-39750000D01*
X126000000Y-39500000D02*
X125750000Y-39750000D01*
X119250000Y-39750000D02*
X121500000Y-39750000D01*
X93750000Y-39750000D02*
X119250000Y-39750000D01*
X42500000Y-39750000D02*
X63500000Y-39750000D01*
X35297919Y-23960000D02*
X34500000Y-24757919D01*
X36500000Y-23960000D02*
X35297919Y-23960000D01*
X54660000Y-30840000D02*
X54250000Y-31250000D01*
X54660000Y-27380000D02*
X54660000Y-30840000D01*
X38750000Y-39750000D02*
X42500000Y-39750000D01*
X34500000Y-35500000D02*
X38750000Y-39750000D01*
X34750000Y-31250000D02*
X34500000Y-31500000D01*
X54250000Y-31250000D02*
X34750000Y-31250000D01*
X34500000Y-31500000D02*
X34500000Y-35500000D01*
X34500000Y-24757919D02*
X34500000Y-31500000D01*
%TO.N,Net-(R1-Pad1)*%
X38000000Y-29250000D02*
X38000000Y-29250000D01*
X43000000Y-24250000D02*
X38000000Y-29250000D01*
X47000000Y-24250000D02*
X47040000Y-24290000D01*
X43000000Y-24250000D02*
X47000000Y-24250000D01*
%TO.N,Net-(R9-Pad1)*%
X66250000Y-37250000D02*
X66250000Y-37250000D01*
X66250000Y-37250000D02*
X66250000Y-37500000D01*
X66250000Y-27000000D02*
X66250000Y-37250000D01*
X68750000Y-24500000D02*
X66250000Y-27000000D01*
X71160000Y-24500000D02*
X68750000Y-24500000D01*
X74040000Y-27380000D02*
X71160000Y-24500000D01*
%TO.N,Net-(R17-Pad1)*%
X94250000Y-37000000D02*
X94250000Y-37000000D01*
X94250000Y-27500000D02*
X94250000Y-37000000D01*
X97250000Y-24500000D02*
X94250000Y-27500000D01*
X101910000Y-24500000D02*
X97250000Y-24500000D01*
X103040000Y-25630000D02*
X101910000Y-24500000D01*
X103040000Y-27380000D02*
X103040000Y-25630000D01*
%TD*%
M02*
