%TF.GenerationSoftware,KiCad,Pcbnew,(5.1.9-0-10_14)*%
%TF.CreationDate,2021-03-14T17:55:17-04:00*%
%TF.ProjectId,LED Display,4c454420-4469-4737-906c-61792e6b6963,rev?*%
%TF.SameCoordinates,Original*%
%TF.FileFunction,Legend,Top*%
%TF.FilePolarity,Positive*%
%FSLAX46Y46*%
G04 Gerber Fmt 4.6, Leading zero omitted, Abs format (unit mm)*
G04 Created by KiCad (PCBNEW (5.1.9-0-10_14)) date 2021-03-14 17:55:17*
%MOMM*%
%LPD*%
G01*
G04 APERTURE LIST*
%ADD10C,0.120000*%
%ADD11C,0.150000*%
G04 APERTURE END LIST*
D10*
%TO.C,Display6*%
X101440000Y-102710000D02*
X101440000Y-101650000D01*
X102500000Y-102710000D02*
X101440000Y-102710000D01*
X103500000Y-102710000D02*
X103500000Y-100590000D01*
X103500000Y-100590000D02*
X149560000Y-100590000D01*
X103500000Y-102710000D02*
X149560000Y-102710000D01*
X149560000Y-102710000D02*
X149560000Y-100590000D01*
%TO.C,C1*%
X42630000Y-22370000D02*
X42630000Y-15130000D01*
X46370000Y-22370000D02*
X46370000Y-15130000D01*
X42630000Y-22370000D02*
X46370000Y-22370000D01*
X42630000Y-15130000D02*
X46370000Y-15130000D01*
%TO.C,C2*%
X69630000Y-15130000D02*
X73370000Y-15130000D01*
X69630000Y-22370000D02*
X73370000Y-22370000D01*
X73370000Y-22370000D02*
X73370000Y-15130000D01*
X69630000Y-22370000D02*
X69630000Y-15130000D01*
%TO.C,C3*%
X98630000Y-15130000D02*
X102370000Y-15130000D01*
X98630000Y-22370000D02*
X102370000Y-22370000D01*
X102370000Y-22370000D02*
X102370000Y-15130000D01*
X98630000Y-22370000D02*
X98630000Y-15130000D01*
%TO.C,C4*%
X132370000Y-15130000D02*
X132370000Y-22370000D01*
X128630000Y-15130000D02*
X128630000Y-22370000D01*
X132370000Y-15130000D02*
X128630000Y-15130000D01*
X132370000Y-22370000D02*
X128630000Y-22370000D01*
%TO.C,Display1*%
X91560000Y-72710000D02*
X91560000Y-70590000D01*
X45500000Y-72710000D02*
X91560000Y-72710000D01*
X45500000Y-70590000D02*
X91560000Y-70590000D01*
X45500000Y-72710000D02*
X45500000Y-70590000D01*
X44500000Y-72710000D02*
X43440000Y-72710000D01*
X43440000Y-72710000D02*
X43440000Y-71650000D01*
%TO.C,Display2*%
X101440000Y-72710000D02*
X101440000Y-71650000D01*
X102500000Y-72710000D02*
X101440000Y-72710000D01*
X103500000Y-72710000D02*
X103500000Y-70590000D01*
X103500000Y-70590000D02*
X149560000Y-70590000D01*
X103500000Y-72710000D02*
X149560000Y-72710000D01*
X149560000Y-72710000D02*
X149560000Y-70590000D01*
%TO.C,Display3*%
X91560000Y-87710000D02*
X91560000Y-85590000D01*
X45500000Y-87710000D02*
X91560000Y-87710000D01*
X45500000Y-85590000D02*
X91560000Y-85590000D01*
X45500000Y-87710000D02*
X45500000Y-85590000D01*
X44500000Y-87710000D02*
X43440000Y-87710000D01*
X43440000Y-87710000D02*
X43440000Y-86650000D01*
%TO.C,Display4*%
X149560000Y-87710000D02*
X149560000Y-85590000D01*
X103500000Y-87710000D02*
X149560000Y-87710000D01*
X103500000Y-85590000D02*
X149560000Y-85590000D01*
X103500000Y-87710000D02*
X103500000Y-85590000D01*
X102500000Y-87710000D02*
X101440000Y-87710000D01*
X101440000Y-87710000D02*
X101440000Y-86650000D01*
%TO.C,Display5*%
X43440000Y-102710000D02*
X43440000Y-101650000D01*
X44500000Y-102710000D02*
X43440000Y-102710000D01*
X45500000Y-102710000D02*
X45500000Y-100590000D01*
X45500000Y-100590000D02*
X91560000Y-100590000D01*
X45500000Y-102710000D02*
X91560000Y-102710000D01*
X91560000Y-102710000D02*
X91560000Y-100590000D01*
%TO.C,J1*%
X37830000Y-27830000D02*
X36500000Y-27830000D01*
X37830000Y-26500000D02*
X37830000Y-27830000D01*
X37830000Y-25230000D02*
X35170000Y-25230000D01*
X35170000Y-25230000D02*
X35170000Y-15010000D01*
X37830000Y-25230000D02*
X37830000Y-15010000D01*
X37830000Y-15010000D02*
X35170000Y-15010000D01*
%TO.C,R1*%
X45750000Y-61870000D02*
X45750000Y-61100000D01*
X45750000Y-53790000D02*
X45750000Y-54560000D01*
X47120000Y-61100000D02*
X47120000Y-54560000D01*
X44380000Y-61100000D02*
X47120000Y-61100000D01*
X44380000Y-54560000D02*
X44380000Y-61100000D01*
X47120000Y-54560000D02*
X44380000Y-54560000D01*
%TO.C,R2*%
X50930000Y-54560000D02*
X48190000Y-54560000D01*
X48190000Y-54560000D02*
X48190000Y-61100000D01*
X48190000Y-61100000D02*
X50930000Y-61100000D01*
X50930000Y-61100000D02*
X50930000Y-54560000D01*
X49560000Y-53790000D02*
X49560000Y-54560000D01*
X49560000Y-61870000D02*
X49560000Y-61100000D01*
%TO.C,R3*%
X53370000Y-61870000D02*
X53370000Y-61100000D01*
X53370000Y-53790000D02*
X53370000Y-54560000D01*
X54740000Y-61100000D02*
X54740000Y-54560000D01*
X52000000Y-61100000D02*
X54740000Y-61100000D01*
X52000000Y-54560000D02*
X52000000Y-61100000D01*
X54740000Y-54560000D02*
X52000000Y-54560000D01*
%TO.C,R4*%
X57180000Y-61870000D02*
X57180000Y-61100000D01*
X57180000Y-53790000D02*
X57180000Y-54560000D01*
X58550000Y-61100000D02*
X58550000Y-54560000D01*
X55810000Y-61100000D02*
X58550000Y-61100000D01*
X55810000Y-54560000D02*
X55810000Y-61100000D01*
X58550000Y-54560000D02*
X55810000Y-54560000D01*
%TO.C,R5*%
X60990000Y-61870000D02*
X60990000Y-61100000D01*
X60990000Y-53790000D02*
X60990000Y-54560000D01*
X62360000Y-61100000D02*
X62360000Y-54560000D01*
X59620000Y-61100000D02*
X62360000Y-61100000D01*
X59620000Y-54560000D02*
X59620000Y-61100000D01*
X62360000Y-54560000D02*
X59620000Y-54560000D01*
%TO.C,R6*%
X66170000Y-54560000D02*
X63430000Y-54560000D01*
X63430000Y-54560000D02*
X63430000Y-61100000D01*
X63430000Y-61100000D02*
X66170000Y-61100000D01*
X66170000Y-61100000D02*
X66170000Y-54560000D01*
X64800000Y-53790000D02*
X64800000Y-54560000D01*
X64800000Y-61870000D02*
X64800000Y-61100000D01*
%TO.C,R7*%
X68610000Y-61870000D02*
X68610000Y-61100000D01*
X68610000Y-53790000D02*
X68610000Y-54560000D01*
X69980000Y-61100000D02*
X69980000Y-54560000D01*
X67240000Y-61100000D02*
X69980000Y-61100000D01*
X67240000Y-54560000D02*
X67240000Y-61100000D01*
X69980000Y-54560000D02*
X67240000Y-54560000D01*
%TO.C,R8*%
X73790000Y-54560000D02*
X71050000Y-54560000D01*
X71050000Y-54560000D02*
X71050000Y-61100000D01*
X71050000Y-61100000D02*
X73790000Y-61100000D01*
X73790000Y-61100000D02*
X73790000Y-54560000D01*
X72420000Y-53790000D02*
X72420000Y-54560000D01*
X72420000Y-61870000D02*
X72420000Y-61100000D01*
%TO.C,R9*%
X77600000Y-54560000D02*
X74860000Y-54560000D01*
X74860000Y-54560000D02*
X74860000Y-61100000D01*
X74860000Y-61100000D02*
X77600000Y-61100000D01*
X77600000Y-61100000D02*
X77600000Y-54560000D01*
X76230000Y-53790000D02*
X76230000Y-54560000D01*
X76230000Y-61870000D02*
X76230000Y-61100000D01*
%TO.C,R10*%
X80040000Y-61870000D02*
X80040000Y-61100000D01*
X80040000Y-53790000D02*
X80040000Y-54560000D01*
X81410000Y-61100000D02*
X81410000Y-54560000D01*
X78670000Y-61100000D02*
X81410000Y-61100000D01*
X78670000Y-54560000D02*
X78670000Y-61100000D01*
X81410000Y-54560000D02*
X78670000Y-54560000D01*
%TO.C,R11*%
X85220000Y-54560000D02*
X82480000Y-54560000D01*
X82480000Y-54560000D02*
X82480000Y-61100000D01*
X82480000Y-61100000D02*
X85220000Y-61100000D01*
X85220000Y-61100000D02*
X85220000Y-54560000D01*
X83850000Y-53790000D02*
X83850000Y-54560000D01*
X83850000Y-61870000D02*
X83850000Y-61100000D01*
%TO.C,R12*%
X87660000Y-61870000D02*
X87660000Y-61100000D01*
X87660000Y-53790000D02*
X87660000Y-54560000D01*
X89030000Y-61100000D02*
X89030000Y-54560000D01*
X86290000Y-61100000D02*
X89030000Y-61100000D01*
X86290000Y-54560000D02*
X86290000Y-61100000D01*
X89030000Y-54560000D02*
X86290000Y-54560000D01*
%TO.C,R13*%
X103750000Y-61620000D02*
X103750000Y-60850000D01*
X103750000Y-53540000D02*
X103750000Y-54310000D01*
X105120000Y-60850000D02*
X105120000Y-54310000D01*
X102380000Y-60850000D02*
X105120000Y-60850000D01*
X102380000Y-54310000D02*
X102380000Y-60850000D01*
X105120000Y-54310000D02*
X102380000Y-54310000D01*
%TO.C,R14*%
X108930000Y-54310000D02*
X106190000Y-54310000D01*
X106190000Y-54310000D02*
X106190000Y-60850000D01*
X106190000Y-60850000D02*
X108930000Y-60850000D01*
X108930000Y-60850000D02*
X108930000Y-54310000D01*
X107560000Y-53540000D02*
X107560000Y-54310000D01*
X107560000Y-61620000D02*
X107560000Y-60850000D01*
%TO.C,R15*%
X112740000Y-54310000D02*
X110000000Y-54310000D01*
X110000000Y-54310000D02*
X110000000Y-60850000D01*
X110000000Y-60850000D02*
X112740000Y-60850000D01*
X112740000Y-60850000D02*
X112740000Y-54310000D01*
X111370000Y-53540000D02*
X111370000Y-54310000D01*
X111370000Y-61620000D02*
X111370000Y-60850000D01*
%TO.C,R16*%
X115180000Y-61620000D02*
X115180000Y-60850000D01*
X115180000Y-53540000D02*
X115180000Y-54310000D01*
X116550000Y-60850000D02*
X116550000Y-54310000D01*
X113810000Y-60850000D02*
X116550000Y-60850000D01*
X113810000Y-54310000D02*
X113810000Y-60850000D01*
X116550000Y-54310000D02*
X113810000Y-54310000D01*
%TO.C,R17*%
X120360000Y-54310000D02*
X117620000Y-54310000D01*
X117620000Y-54310000D02*
X117620000Y-60850000D01*
X117620000Y-60850000D02*
X120360000Y-60850000D01*
X120360000Y-60850000D02*
X120360000Y-54310000D01*
X118990000Y-53540000D02*
X118990000Y-54310000D01*
X118990000Y-61620000D02*
X118990000Y-60850000D01*
%TO.C,R18*%
X122800000Y-61620000D02*
X122800000Y-60850000D01*
X122800000Y-53540000D02*
X122800000Y-54310000D01*
X124170000Y-60850000D02*
X124170000Y-54310000D01*
X121430000Y-60850000D02*
X124170000Y-60850000D01*
X121430000Y-54310000D02*
X121430000Y-60850000D01*
X124170000Y-54310000D02*
X121430000Y-54310000D01*
%TO.C,R19*%
X127980000Y-54310000D02*
X125240000Y-54310000D01*
X125240000Y-54310000D02*
X125240000Y-60850000D01*
X125240000Y-60850000D02*
X127980000Y-60850000D01*
X127980000Y-60850000D02*
X127980000Y-54310000D01*
X126610000Y-53540000D02*
X126610000Y-54310000D01*
X126610000Y-61620000D02*
X126610000Y-60850000D01*
%TO.C,R20*%
X130420000Y-61620000D02*
X130420000Y-60850000D01*
X130420000Y-53540000D02*
X130420000Y-54310000D01*
X131790000Y-60850000D02*
X131790000Y-54310000D01*
X129050000Y-60850000D02*
X131790000Y-60850000D01*
X129050000Y-54310000D02*
X129050000Y-60850000D01*
X131790000Y-54310000D02*
X129050000Y-54310000D01*
%TO.C,R21*%
X135600000Y-54310000D02*
X132860000Y-54310000D01*
X132860000Y-54310000D02*
X132860000Y-60850000D01*
X132860000Y-60850000D02*
X135600000Y-60850000D01*
X135600000Y-60850000D02*
X135600000Y-54310000D01*
X134230000Y-53540000D02*
X134230000Y-54310000D01*
X134230000Y-61620000D02*
X134230000Y-60850000D01*
%TO.C,R22*%
X138040000Y-61620000D02*
X138040000Y-60850000D01*
X138040000Y-53540000D02*
X138040000Y-54310000D01*
X139410000Y-60850000D02*
X139410000Y-54310000D01*
X136670000Y-60850000D02*
X139410000Y-60850000D01*
X136670000Y-54310000D02*
X136670000Y-60850000D01*
X139410000Y-54310000D02*
X136670000Y-54310000D01*
%TO.C,R23*%
X143220000Y-54310000D02*
X140480000Y-54310000D01*
X140480000Y-54310000D02*
X140480000Y-60850000D01*
X140480000Y-60850000D02*
X143220000Y-60850000D01*
X143220000Y-60850000D02*
X143220000Y-54310000D01*
X141850000Y-53540000D02*
X141850000Y-54310000D01*
X141850000Y-61620000D02*
X141850000Y-60850000D01*
%TO.C,R24*%
X147030000Y-54310000D02*
X144290000Y-54310000D01*
X144290000Y-54310000D02*
X144290000Y-60850000D01*
X144290000Y-60850000D02*
X147030000Y-60850000D01*
X147030000Y-60850000D02*
X147030000Y-54310000D01*
X145660000Y-53540000D02*
X145660000Y-54310000D01*
X145660000Y-61620000D02*
X145660000Y-60850000D01*
%TO.C,U1*%
X43170000Y-30190000D02*
G75*
G02*
X43170000Y-32190000I0J-1000000D01*
G01*
X43170000Y-32190000D02*
X43170000Y-33440000D01*
X43170000Y-33440000D02*
X63610000Y-33440000D01*
X63610000Y-33440000D02*
X63610000Y-28940000D01*
X63610000Y-28940000D02*
X43170000Y-28940000D01*
X43170000Y-28940000D02*
X43170000Y-30190000D01*
%TO.C,U2*%
X70170000Y-28940000D02*
X70170000Y-30190000D01*
X90610000Y-28940000D02*
X70170000Y-28940000D01*
X90610000Y-33440000D02*
X90610000Y-28940000D01*
X70170000Y-33440000D02*
X90610000Y-33440000D01*
X70170000Y-32190000D02*
X70170000Y-33440000D01*
X70170000Y-30190000D02*
G75*
G02*
X70170000Y-32190000I0J-1000000D01*
G01*
%TO.C,U3*%
X99170000Y-30190000D02*
G75*
G02*
X99170000Y-32190000I0J-1000000D01*
G01*
X99170000Y-32190000D02*
X99170000Y-33440000D01*
X99170000Y-33440000D02*
X119610000Y-33440000D01*
X119610000Y-33440000D02*
X119610000Y-28940000D01*
X119610000Y-28940000D02*
X99170000Y-28940000D01*
X99170000Y-28940000D02*
X99170000Y-30190000D01*
%TO.C,U4*%
X129170000Y-28940000D02*
X129170000Y-30190000D01*
X149610000Y-28940000D02*
X129170000Y-28940000D01*
X149610000Y-33440000D02*
X149610000Y-28940000D01*
X129170000Y-33440000D02*
X149610000Y-33440000D01*
X129170000Y-32190000D02*
X129170000Y-33440000D01*
X129170000Y-30190000D02*
G75*
G02*
X129170000Y-32190000I0J-1000000D01*
G01*
%TO.C,REF\u002A\u002A*%
D11*
X166666666Y-16252380D02*
X166333333Y-15776190D01*
X166095238Y-16252380D02*
X166095238Y-15252380D01*
X166476190Y-15252380D01*
X166571428Y-15300000D01*
X166619047Y-15347619D01*
X166666666Y-15442857D01*
X166666666Y-15585714D01*
X166619047Y-15680952D01*
X166571428Y-15728571D01*
X166476190Y-15776190D01*
X166095238Y-15776190D01*
X167095238Y-15728571D02*
X167428571Y-15728571D01*
X167571428Y-16252380D02*
X167095238Y-16252380D01*
X167095238Y-15252380D01*
X167571428Y-15252380D01*
X168333333Y-15728571D02*
X168000000Y-15728571D01*
X168000000Y-16252380D02*
X168000000Y-15252380D01*
X168476190Y-15252380D01*
X169000000Y-15252380D02*
X169000000Y-15490476D01*
X168761904Y-15395238D02*
X169000000Y-15490476D01*
X169238095Y-15395238D01*
X168857142Y-15680952D02*
X169000000Y-15490476D01*
X169142857Y-15680952D01*
X169761904Y-15252380D02*
X169761904Y-15490476D01*
X169523809Y-15395238D02*
X169761904Y-15490476D01*
X170000000Y-15395238D01*
X169619047Y-15680952D02*
X169761904Y-15490476D01*
X169904761Y-15680952D01*
X166666666Y-99252380D02*
X166333333Y-98776190D01*
X166095238Y-99252380D02*
X166095238Y-98252380D01*
X166476190Y-98252380D01*
X166571428Y-98300000D01*
X166619047Y-98347619D01*
X166666666Y-98442857D01*
X166666666Y-98585714D01*
X166619047Y-98680952D01*
X166571428Y-98728571D01*
X166476190Y-98776190D01*
X166095238Y-98776190D01*
X167095238Y-98728571D02*
X167428571Y-98728571D01*
X167571428Y-99252380D02*
X167095238Y-99252380D01*
X167095238Y-98252380D01*
X167571428Y-98252380D01*
X168333333Y-98728571D02*
X168000000Y-98728571D01*
X168000000Y-99252380D02*
X168000000Y-98252380D01*
X168476190Y-98252380D01*
X169000000Y-98252380D02*
X169000000Y-98490476D01*
X168761904Y-98395238D02*
X169000000Y-98490476D01*
X169238095Y-98395238D01*
X168857142Y-98680952D02*
X169000000Y-98490476D01*
X169142857Y-98680952D01*
X169761904Y-98252380D02*
X169761904Y-98490476D01*
X169523809Y-98395238D02*
X169761904Y-98490476D01*
X170000000Y-98395238D01*
X169619047Y-98680952D02*
X169761904Y-98490476D01*
X169904761Y-98680952D01*
X23666666Y-99252380D02*
X23333333Y-98776190D01*
X23095238Y-99252380D02*
X23095238Y-98252380D01*
X23476190Y-98252380D01*
X23571428Y-98300000D01*
X23619047Y-98347619D01*
X23666666Y-98442857D01*
X23666666Y-98585714D01*
X23619047Y-98680952D01*
X23571428Y-98728571D01*
X23476190Y-98776190D01*
X23095238Y-98776190D01*
X24095238Y-98728571D02*
X24428571Y-98728571D01*
X24571428Y-99252380D02*
X24095238Y-99252380D01*
X24095238Y-98252380D01*
X24571428Y-98252380D01*
X25333333Y-98728571D02*
X25000000Y-98728571D01*
X25000000Y-99252380D02*
X25000000Y-98252380D01*
X25476190Y-98252380D01*
X26000000Y-98252380D02*
X26000000Y-98490476D01*
X25761904Y-98395238D02*
X26000000Y-98490476D01*
X26238095Y-98395238D01*
X25857142Y-98680952D02*
X26000000Y-98490476D01*
X26142857Y-98680952D01*
X26761904Y-98252380D02*
X26761904Y-98490476D01*
X26523809Y-98395238D02*
X26761904Y-98490476D01*
X27000000Y-98395238D01*
X26619047Y-98680952D02*
X26761904Y-98490476D01*
X26904761Y-98680952D01*
X23666666Y-16252380D02*
X23333333Y-15776190D01*
X23095238Y-16252380D02*
X23095238Y-15252380D01*
X23476190Y-15252380D01*
X23571428Y-15300000D01*
X23619047Y-15347619D01*
X23666666Y-15442857D01*
X23666666Y-15585714D01*
X23619047Y-15680952D01*
X23571428Y-15728571D01*
X23476190Y-15776190D01*
X23095238Y-15776190D01*
X24095238Y-15728571D02*
X24428571Y-15728571D01*
X24571428Y-16252380D02*
X24095238Y-16252380D01*
X24095238Y-15252380D01*
X24571428Y-15252380D01*
X25333333Y-15728571D02*
X25000000Y-15728571D01*
X25000000Y-16252380D02*
X25000000Y-15252380D01*
X25476190Y-15252380D01*
X26000000Y-15252380D02*
X26000000Y-15490476D01*
X25761904Y-15395238D02*
X26000000Y-15490476D01*
X26238095Y-15395238D01*
X25857142Y-15680952D02*
X26000000Y-15490476D01*
X26142857Y-15680952D01*
X26761904Y-15252380D02*
X26761904Y-15490476D01*
X26523809Y-15395238D02*
X26761904Y-15490476D01*
X27000000Y-15395238D01*
X26619047Y-15680952D02*
X26761904Y-15490476D01*
X26904761Y-15680952D01*
%TO.C,Display6*%
X100892380Y-104578571D02*
X99892380Y-104578571D01*
X99892380Y-104340476D01*
X99940000Y-104197619D01*
X100035238Y-104102380D01*
X100130476Y-104054761D01*
X100320952Y-104007142D01*
X100463809Y-104007142D01*
X100654285Y-104054761D01*
X100749523Y-104102380D01*
X100844761Y-104197619D01*
X100892380Y-104340476D01*
X100892380Y-104578571D01*
X100892380Y-103578571D02*
X100225714Y-103578571D01*
X99892380Y-103578571D02*
X99940000Y-103626190D01*
X99987619Y-103578571D01*
X99940000Y-103530952D01*
X99892380Y-103578571D01*
X99987619Y-103578571D01*
X100844761Y-103150000D02*
X100892380Y-103054761D01*
X100892380Y-102864285D01*
X100844761Y-102769047D01*
X100749523Y-102721428D01*
X100701904Y-102721428D01*
X100606666Y-102769047D01*
X100559047Y-102864285D01*
X100559047Y-103007142D01*
X100511428Y-103102380D01*
X100416190Y-103150000D01*
X100368571Y-103150000D01*
X100273333Y-103102380D01*
X100225714Y-103007142D01*
X100225714Y-102864285D01*
X100273333Y-102769047D01*
X100225714Y-102292857D02*
X101225714Y-102292857D01*
X100273333Y-102292857D02*
X100225714Y-102197619D01*
X100225714Y-102007142D01*
X100273333Y-101911904D01*
X100320952Y-101864285D01*
X100416190Y-101816666D01*
X100701904Y-101816666D01*
X100797142Y-101864285D01*
X100844761Y-101911904D01*
X100892380Y-102007142D01*
X100892380Y-102197619D01*
X100844761Y-102292857D01*
X100892380Y-101245238D02*
X100844761Y-101340476D01*
X100749523Y-101388095D01*
X99892380Y-101388095D01*
X100892380Y-100435714D02*
X100368571Y-100435714D01*
X100273333Y-100483333D01*
X100225714Y-100578571D01*
X100225714Y-100769047D01*
X100273333Y-100864285D01*
X100844761Y-100435714D02*
X100892380Y-100530952D01*
X100892380Y-100769047D01*
X100844761Y-100864285D01*
X100749523Y-100911904D01*
X100654285Y-100911904D01*
X100559047Y-100864285D01*
X100511428Y-100769047D01*
X100511428Y-100530952D01*
X100463809Y-100435714D01*
X100225714Y-100054761D02*
X100892380Y-99816666D01*
X100225714Y-99578571D02*
X100892380Y-99816666D01*
X101130476Y-99911904D01*
X101178095Y-99959523D01*
X101225714Y-100054761D01*
X99892380Y-98769047D02*
X99892380Y-98959523D01*
X99940000Y-99054761D01*
X99987619Y-99102380D01*
X100130476Y-99197619D01*
X100320952Y-99245238D01*
X100701904Y-99245238D01*
X100797142Y-99197619D01*
X100844761Y-99150000D01*
X100892380Y-99054761D01*
X100892380Y-98864285D01*
X100844761Y-98769047D01*
X100797142Y-98721428D01*
X100701904Y-98673809D01*
X100463809Y-98673809D01*
X100368571Y-98721428D01*
X100320952Y-98769047D01*
X100273333Y-98864285D01*
X100273333Y-99054761D01*
X100320952Y-99150000D01*
X100368571Y-99197619D01*
X100463809Y-99245238D01*
%TO.C,C1*%
X41857142Y-18916666D02*
X41904761Y-18964285D01*
X41952380Y-19107142D01*
X41952380Y-19202380D01*
X41904761Y-19345238D01*
X41809523Y-19440476D01*
X41714285Y-19488095D01*
X41523809Y-19535714D01*
X41380952Y-19535714D01*
X41190476Y-19488095D01*
X41095238Y-19440476D01*
X41000000Y-19345238D01*
X40952380Y-19202380D01*
X40952380Y-19107142D01*
X41000000Y-18964285D01*
X41047619Y-18916666D01*
X41952380Y-17964285D02*
X41952380Y-18535714D01*
X41952380Y-18250000D02*
X40952380Y-18250000D01*
X41095238Y-18345238D01*
X41190476Y-18440476D01*
X41238095Y-18535714D01*
%TO.C,C2*%
X68857142Y-18916666D02*
X68904761Y-18964285D01*
X68952380Y-19107142D01*
X68952380Y-19202380D01*
X68904761Y-19345238D01*
X68809523Y-19440476D01*
X68714285Y-19488095D01*
X68523809Y-19535714D01*
X68380952Y-19535714D01*
X68190476Y-19488095D01*
X68095238Y-19440476D01*
X68000000Y-19345238D01*
X67952380Y-19202380D01*
X67952380Y-19107142D01*
X68000000Y-18964285D01*
X68047619Y-18916666D01*
X68047619Y-18535714D02*
X68000000Y-18488095D01*
X67952380Y-18392857D01*
X67952380Y-18154761D01*
X68000000Y-18059523D01*
X68047619Y-18011904D01*
X68142857Y-17964285D01*
X68238095Y-17964285D01*
X68380952Y-18011904D01*
X68952380Y-18583333D01*
X68952380Y-17964285D01*
%TO.C,C3*%
X97857142Y-18916666D02*
X97904761Y-18964285D01*
X97952380Y-19107142D01*
X97952380Y-19202380D01*
X97904761Y-19345238D01*
X97809523Y-19440476D01*
X97714285Y-19488095D01*
X97523809Y-19535714D01*
X97380952Y-19535714D01*
X97190476Y-19488095D01*
X97095238Y-19440476D01*
X97000000Y-19345238D01*
X96952380Y-19202380D01*
X96952380Y-19107142D01*
X97000000Y-18964285D01*
X97047619Y-18916666D01*
X96952380Y-18583333D02*
X96952380Y-17964285D01*
X97333333Y-18297619D01*
X97333333Y-18154761D01*
X97380952Y-18059523D01*
X97428571Y-18011904D01*
X97523809Y-17964285D01*
X97761904Y-17964285D01*
X97857142Y-18011904D01*
X97904761Y-18059523D01*
X97952380Y-18154761D01*
X97952380Y-18440476D01*
X97904761Y-18535714D01*
X97857142Y-18583333D01*
%TO.C,C4*%
X133857142Y-18916666D02*
X133904761Y-18964285D01*
X133952380Y-19107142D01*
X133952380Y-19202380D01*
X133904761Y-19345238D01*
X133809523Y-19440476D01*
X133714285Y-19488095D01*
X133523809Y-19535714D01*
X133380952Y-19535714D01*
X133190476Y-19488095D01*
X133095238Y-19440476D01*
X133000000Y-19345238D01*
X132952380Y-19202380D01*
X132952380Y-19107142D01*
X133000000Y-18964285D01*
X133047619Y-18916666D01*
X133285714Y-18059523D02*
X133952380Y-18059523D01*
X132904761Y-18297619D02*
X133619047Y-18535714D01*
X133619047Y-17916666D01*
%TO.C,Display1*%
X42892380Y-74578571D02*
X41892380Y-74578571D01*
X41892380Y-74340476D01*
X41940000Y-74197619D01*
X42035238Y-74102380D01*
X42130476Y-74054761D01*
X42320952Y-74007142D01*
X42463809Y-74007142D01*
X42654285Y-74054761D01*
X42749523Y-74102380D01*
X42844761Y-74197619D01*
X42892380Y-74340476D01*
X42892380Y-74578571D01*
X42892380Y-73578571D02*
X42225714Y-73578571D01*
X41892380Y-73578571D02*
X41940000Y-73626190D01*
X41987619Y-73578571D01*
X41940000Y-73530952D01*
X41892380Y-73578571D01*
X41987619Y-73578571D01*
X42844761Y-73150000D02*
X42892380Y-73054761D01*
X42892380Y-72864285D01*
X42844761Y-72769047D01*
X42749523Y-72721428D01*
X42701904Y-72721428D01*
X42606666Y-72769047D01*
X42559047Y-72864285D01*
X42559047Y-73007142D01*
X42511428Y-73102380D01*
X42416190Y-73150000D01*
X42368571Y-73150000D01*
X42273333Y-73102380D01*
X42225714Y-73007142D01*
X42225714Y-72864285D01*
X42273333Y-72769047D01*
X42225714Y-72292857D02*
X43225714Y-72292857D01*
X42273333Y-72292857D02*
X42225714Y-72197619D01*
X42225714Y-72007142D01*
X42273333Y-71911904D01*
X42320952Y-71864285D01*
X42416190Y-71816666D01*
X42701904Y-71816666D01*
X42797142Y-71864285D01*
X42844761Y-71911904D01*
X42892380Y-72007142D01*
X42892380Y-72197619D01*
X42844761Y-72292857D01*
X42892380Y-71245238D02*
X42844761Y-71340476D01*
X42749523Y-71388095D01*
X41892380Y-71388095D01*
X42892380Y-70435714D02*
X42368571Y-70435714D01*
X42273333Y-70483333D01*
X42225714Y-70578571D01*
X42225714Y-70769047D01*
X42273333Y-70864285D01*
X42844761Y-70435714D02*
X42892380Y-70530952D01*
X42892380Y-70769047D01*
X42844761Y-70864285D01*
X42749523Y-70911904D01*
X42654285Y-70911904D01*
X42559047Y-70864285D01*
X42511428Y-70769047D01*
X42511428Y-70530952D01*
X42463809Y-70435714D01*
X42225714Y-70054761D02*
X42892380Y-69816666D01*
X42225714Y-69578571D02*
X42892380Y-69816666D01*
X43130476Y-69911904D01*
X43178095Y-69959523D01*
X43225714Y-70054761D01*
X42892380Y-68673809D02*
X42892380Y-69245238D01*
X42892380Y-68959523D02*
X41892380Y-68959523D01*
X42035238Y-69054761D01*
X42130476Y-69150000D01*
X42178095Y-69245238D01*
%TO.C,Display2*%
X100892380Y-74578571D02*
X99892380Y-74578571D01*
X99892380Y-74340476D01*
X99940000Y-74197619D01*
X100035238Y-74102380D01*
X100130476Y-74054761D01*
X100320952Y-74007142D01*
X100463809Y-74007142D01*
X100654285Y-74054761D01*
X100749523Y-74102380D01*
X100844761Y-74197619D01*
X100892380Y-74340476D01*
X100892380Y-74578571D01*
X100892380Y-73578571D02*
X100225714Y-73578571D01*
X99892380Y-73578571D02*
X99940000Y-73626190D01*
X99987619Y-73578571D01*
X99940000Y-73530952D01*
X99892380Y-73578571D01*
X99987619Y-73578571D01*
X100844761Y-73150000D02*
X100892380Y-73054761D01*
X100892380Y-72864285D01*
X100844761Y-72769047D01*
X100749523Y-72721428D01*
X100701904Y-72721428D01*
X100606666Y-72769047D01*
X100559047Y-72864285D01*
X100559047Y-73007142D01*
X100511428Y-73102380D01*
X100416190Y-73150000D01*
X100368571Y-73150000D01*
X100273333Y-73102380D01*
X100225714Y-73007142D01*
X100225714Y-72864285D01*
X100273333Y-72769047D01*
X100225714Y-72292857D02*
X101225714Y-72292857D01*
X100273333Y-72292857D02*
X100225714Y-72197619D01*
X100225714Y-72007142D01*
X100273333Y-71911904D01*
X100320952Y-71864285D01*
X100416190Y-71816666D01*
X100701904Y-71816666D01*
X100797142Y-71864285D01*
X100844761Y-71911904D01*
X100892380Y-72007142D01*
X100892380Y-72197619D01*
X100844761Y-72292857D01*
X100892380Y-71245238D02*
X100844761Y-71340476D01*
X100749523Y-71388095D01*
X99892380Y-71388095D01*
X100892380Y-70435714D02*
X100368571Y-70435714D01*
X100273333Y-70483333D01*
X100225714Y-70578571D01*
X100225714Y-70769047D01*
X100273333Y-70864285D01*
X100844761Y-70435714D02*
X100892380Y-70530952D01*
X100892380Y-70769047D01*
X100844761Y-70864285D01*
X100749523Y-70911904D01*
X100654285Y-70911904D01*
X100559047Y-70864285D01*
X100511428Y-70769047D01*
X100511428Y-70530952D01*
X100463809Y-70435714D01*
X100225714Y-70054761D02*
X100892380Y-69816666D01*
X100225714Y-69578571D02*
X100892380Y-69816666D01*
X101130476Y-69911904D01*
X101178095Y-69959523D01*
X101225714Y-70054761D01*
X99987619Y-69245238D02*
X99940000Y-69197619D01*
X99892380Y-69102380D01*
X99892380Y-68864285D01*
X99940000Y-68769047D01*
X99987619Y-68721428D01*
X100082857Y-68673809D01*
X100178095Y-68673809D01*
X100320952Y-68721428D01*
X100892380Y-69292857D01*
X100892380Y-68673809D01*
%TO.C,Display3*%
X42892380Y-89578571D02*
X41892380Y-89578571D01*
X41892380Y-89340476D01*
X41940000Y-89197619D01*
X42035238Y-89102380D01*
X42130476Y-89054761D01*
X42320952Y-89007142D01*
X42463809Y-89007142D01*
X42654285Y-89054761D01*
X42749523Y-89102380D01*
X42844761Y-89197619D01*
X42892380Y-89340476D01*
X42892380Y-89578571D01*
X42892380Y-88578571D02*
X42225714Y-88578571D01*
X41892380Y-88578571D02*
X41940000Y-88626190D01*
X41987619Y-88578571D01*
X41940000Y-88530952D01*
X41892380Y-88578571D01*
X41987619Y-88578571D01*
X42844761Y-88150000D02*
X42892380Y-88054761D01*
X42892380Y-87864285D01*
X42844761Y-87769047D01*
X42749523Y-87721428D01*
X42701904Y-87721428D01*
X42606666Y-87769047D01*
X42559047Y-87864285D01*
X42559047Y-88007142D01*
X42511428Y-88102380D01*
X42416190Y-88150000D01*
X42368571Y-88150000D01*
X42273333Y-88102380D01*
X42225714Y-88007142D01*
X42225714Y-87864285D01*
X42273333Y-87769047D01*
X42225714Y-87292857D02*
X43225714Y-87292857D01*
X42273333Y-87292857D02*
X42225714Y-87197619D01*
X42225714Y-87007142D01*
X42273333Y-86911904D01*
X42320952Y-86864285D01*
X42416190Y-86816666D01*
X42701904Y-86816666D01*
X42797142Y-86864285D01*
X42844761Y-86911904D01*
X42892380Y-87007142D01*
X42892380Y-87197619D01*
X42844761Y-87292857D01*
X42892380Y-86245238D02*
X42844761Y-86340476D01*
X42749523Y-86388095D01*
X41892380Y-86388095D01*
X42892380Y-85435714D02*
X42368571Y-85435714D01*
X42273333Y-85483333D01*
X42225714Y-85578571D01*
X42225714Y-85769047D01*
X42273333Y-85864285D01*
X42844761Y-85435714D02*
X42892380Y-85530952D01*
X42892380Y-85769047D01*
X42844761Y-85864285D01*
X42749523Y-85911904D01*
X42654285Y-85911904D01*
X42559047Y-85864285D01*
X42511428Y-85769047D01*
X42511428Y-85530952D01*
X42463809Y-85435714D01*
X42225714Y-85054761D02*
X42892380Y-84816666D01*
X42225714Y-84578571D02*
X42892380Y-84816666D01*
X43130476Y-84911904D01*
X43178095Y-84959523D01*
X43225714Y-85054761D01*
X41892380Y-84292857D02*
X41892380Y-83673809D01*
X42273333Y-84007142D01*
X42273333Y-83864285D01*
X42320952Y-83769047D01*
X42368571Y-83721428D01*
X42463809Y-83673809D01*
X42701904Y-83673809D01*
X42797142Y-83721428D01*
X42844761Y-83769047D01*
X42892380Y-83864285D01*
X42892380Y-84150000D01*
X42844761Y-84245238D01*
X42797142Y-84292857D01*
%TO.C,Display4*%
X100892380Y-89578571D02*
X99892380Y-89578571D01*
X99892380Y-89340476D01*
X99940000Y-89197619D01*
X100035238Y-89102380D01*
X100130476Y-89054761D01*
X100320952Y-89007142D01*
X100463809Y-89007142D01*
X100654285Y-89054761D01*
X100749523Y-89102380D01*
X100844761Y-89197619D01*
X100892380Y-89340476D01*
X100892380Y-89578571D01*
X100892380Y-88578571D02*
X100225714Y-88578571D01*
X99892380Y-88578571D02*
X99940000Y-88626190D01*
X99987619Y-88578571D01*
X99940000Y-88530952D01*
X99892380Y-88578571D01*
X99987619Y-88578571D01*
X100844761Y-88150000D02*
X100892380Y-88054761D01*
X100892380Y-87864285D01*
X100844761Y-87769047D01*
X100749523Y-87721428D01*
X100701904Y-87721428D01*
X100606666Y-87769047D01*
X100559047Y-87864285D01*
X100559047Y-88007142D01*
X100511428Y-88102380D01*
X100416190Y-88150000D01*
X100368571Y-88150000D01*
X100273333Y-88102380D01*
X100225714Y-88007142D01*
X100225714Y-87864285D01*
X100273333Y-87769047D01*
X100225714Y-87292857D02*
X101225714Y-87292857D01*
X100273333Y-87292857D02*
X100225714Y-87197619D01*
X100225714Y-87007142D01*
X100273333Y-86911904D01*
X100320952Y-86864285D01*
X100416190Y-86816666D01*
X100701904Y-86816666D01*
X100797142Y-86864285D01*
X100844761Y-86911904D01*
X100892380Y-87007142D01*
X100892380Y-87197619D01*
X100844761Y-87292857D01*
X100892380Y-86245238D02*
X100844761Y-86340476D01*
X100749523Y-86388095D01*
X99892380Y-86388095D01*
X100892380Y-85435714D02*
X100368571Y-85435714D01*
X100273333Y-85483333D01*
X100225714Y-85578571D01*
X100225714Y-85769047D01*
X100273333Y-85864285D01*
X100844761Y-85435714D02*
X100892380Y-85530952D01*
X100892380Y-85769047D01*
X100844761Y-85864285D01*
X100749523Y-85911904D01*
X100654285Y-85911904D01*
X100559047Y-85864285D01*
X100511428Y-85769047D01*
X100511428Y-85530952D01*
X100463809Y-85435714D01*
X100225714Y-85054761D02*
X100892380Y-84816666D01*
X100225714Y-84578571D02*
X100892380Y-84816666D01*
X101130476Y-84911904D01*
X101178095Y-84959523D01*
X101225714Y-85054761D01*
X100225714Y-83769047D02*
X100892380Y-83769047D01*
X99844761Y-84007142D02*
X100559047Y-84245238D01*
X100559047Y-83626190D01*
%TO.C,Display5*%
X42892380Y-104578571D02*
X41892380Y-104578571D01*
X41892380Y-104340476D01*
X41940000Y-104197619D01*
X42035238Y-104102380D01*
X42130476Y-104054761D01*
X42320952Y-104007142D01*
X42463809Y-104007142D01*
X42654285Y-104054761D01*
X42749523Y-104102380D01*
X42844761Y-104197619D01*
X42892380Y-104340476D01*
X42892380Y-104578571D01*
X42892380Y-103578571D02*
X42225714Y-103578571D01*
X41892380Y-103578571D02*
X41940000Y-103626190D01*
X41987619Y-103578571D01*
X41940000Y-103530952D01*
X41892380Y-103578571D01*
X41987619Y-103578571D01*
X42844761Y-103150000D02*
X42892380Y-103054761D01*
X42892380Y-102864285D01*
X42844761Y-102769047D01*
X42749523Y-102721428D01*
X42701904Y-102721428D01*
X42606666Y-102769047D01*
X42559047Y-102864285D01*
X42559047Y-103007142D01*
X42511428Y-103102380D01*
X42416190Y-103150000D01*
X42368571Y-103150000D01*
X42273333Y-103102380D01*
X42225714Y-103007142D01*
X42225714Y-102864285D01*
X42273333Y-102769047D01*
X42225714Y-102292857D02*
X43225714Y-102292857D01*
X42273333Y-102292857D02*
X42225714Y-102197619D01*
X42225714Y-102007142D01*
X42273333Y-101911904D01*
X42320952Y-101864285D01*
X42416190Y-101816666D01*
X42701904Y-101816666D01*
X42797142Y-101864285D01*
X42844761Y-101911904D01*
X42892380Y-102007142D01*
X42892380Y-102197619D01*
X42844761Y-102292857D01*
X42892380Y-101245238D02*
X42844761Y-101340476D01*
X42749523Y-101388095D01*
X41892380Y-101388095D01*
X42892380Y-100435714D02*
X42368571Y-100435714D01*
X42273333Y-100483333D01*
X42225714Y-100578571D01*
X42225714Y-100769047D01*
X42273333Y-100864285D01*
X42844761Y-100435714D02*
X42892380Y-100530952D01*
X42892380Y-100769047D01*
X42844761Y-100864285D01*
X42749523Y-100911904D01*
X42654285Y-100911904D01*
X42559047Y-100864285D01*
X42511428Y-100769047D01*
X42511428Y-100530952D01*
X42463809Y-100435714D01*
X42225714Y-100054761D02*
X42892380Y-99816666D01*
X42225714Y-99578571D02*
X42892380Y-99816666D01*
X43130476Y-99911904D01*
X43178095Y-99959523D01*
X43225714Y-100054761D01*
X41892380Y-98721428D02*
X41892380Y-99197619D01*
X42368571Y-99245238D01*
X42320952Y-99197619D01*
X42273333Y-99102380D01*
X42273333Y-98864285D01*
X42320952Y-98769047D01*
X42368571Y-98721428D01*
X42463809Y-98673809D01*
X42701904Y-98673809D01*
X42797142Y-98721428D01*
X42844761Y-98769047D01*
X42892380Y-98864285D01*
X42892380Y-99102380D01*
X42844761Y-99197619D01*
X42797142Y-99245238D01*
%TO.C,J1*%
X36166666Y-28282380D02*
X36166666Y-28996666D01*
X36119047Y-29139523D01*
X36023809Y-29234761D01*
X35880952Y-29282380D01*
X35785714Y-29282380D01*
X37166666Y-29282380D02*
X36595238Y-29282380D01*
X36880952Y-29282380D02*
X36880952Y-28282380D01*
X36785714Y-28425238D01*
X36690476Y-28520476D01*
X36595238Y-28568095D01*
%TO.C,R1*%
X48572380Y-57996666D02*
X48096190Y-58330000D01*
X48572380Y-58568095D02*
X47572380Y-58568095D01*
X47572380Y-58187142D01*
X47620000Y-58091904D01*
X47667619Y-58044285D01*
X47762857Y-57996666D01*
X47905714Y-57996666D01*
X48000952Y-58044285D01*
X48048571Y-58091904D01*
X48096190Y-58187142D01*
X48096190Y-58568095D01*
X48572380Y-57044285D02*
X48572380Y-57615714D01*
X48572380Y-57330000D02*
X47572380Y-57330000D01*
X47715238Y-57425238D01*
X47810476Y-57520476D01*
X47858095Y-57615714D01*
%TO.C,R2*%
X52382380Y-57996666D02*
X51906190Y-58330000D01*
X52382380Y-58568095D02*
X51382380Y-58568095D01*
X51382380Y-58187142D01*
X51430000Y-58091904D01*
X51477619Y-58044285D01*
X51572857Y-57996666D01*
X51715714Y-57996666D01*
X51810952Y-58044285D01*
X51858571Y-58091904D01*
X51906190Y-58187142D01*
X51906190Y-58568095D01*
X51477619Y-57615714D02*
X51430000Y-57568095D01*
X51382380Y-57472857D01*
X51382380Y-57234761D01*
X51430000Y-57139523D01*
X51477619Y-57091904D01*
X51572857Y-57044285D01*
X51668095Y-57044285D01*
X51810952Y-57091904D01*
X52382380Y-57663333D01*
X52382380Y-57044285D01*
%TO.C,R3*%
X56192380Y-57996666D02*
X55716190Y-58330000D01*
X56192380Y-58568095D02*
X55192380Y-58568095D01*
X55192380Y-58187142D01*
X55240000Y-58091904D01*
X55287619Y-58044285D01*
X55382857Y-57996666D01*
X55525714Y-57996666D01*
X55620952Y-58044285D01*
X55668571Y-58091904D01*
X55716190Y-58187142D01*
X55716190Y-58568095D01*
X55192380Y-57663333D02*
X55192380Y-57044285D01*
X55573333Y-57377619D01*
X55573333Y-57234761D01*
X55620952Y-57139523D01*
X55668571Y-57091904D01*
X55763809Y-57044285D01*
X56001904Y-57044285D01*
X56097142Y-57091904D01*
X56144761Y-57139523D01*
X56192380Y-57234761D01*
X56192380Y-57520476D01*
X56144761Y-57615714D01*
X56097142Y-57663333D01*
%TO.C,R4*%
X60002380Y-57996666D02*
X59526190Y-58330000D01*
X60002380Y-58568095D02*
X59002380Y-58568095D01*
X59002380Y-58187142D01*
X59050000Y-58091904D01*
X59097619Y-58044285D01*
X59192857Y-57996666D01*
X59335714Y-57996666D01*
X59430952Y-58044285D01*
X59478571Y-58091904D01*
X59526190Y-58187142D01*
X59526190Y-58568095D01*
X59335714Y-57139523D02*
X60002380Y-57139523D01*
X58954761Y-57377619D02*
X59669047Y-57615714D01*
X59669047Y-56996666D01*
%TO.C,R5*%
X63812380Y-57996666D02*
X63336190Y-58330000D01*
X63812380Y-58568095D02*
X62812380Y-58568095D01*
X62812380Y-58187142D01*
X62860000Y-58091904D01*
X62907619Y-58044285D01*
X63002857Y-57996666D01*
X63145714Y-57996666D01*
X63240952Y-58044285D01*
X63288571Y-58091904D01*
X63336190Y-58187142D01*
X63336190Y-58568095D01*
X62812380Y-57091904D02*
X62812380Y-57568095D01*
X63288571Y-57615714D01*
X63240952Y-57568095D01*
X63193333Y-57472857D01*
X63193333Y-57234761D01*
X63240952Y-57139523D01*
X63288571Y-57091904D01*
X63383809Y-57044285D01*
X63621904Y-57044285D01*
X63717142Y-57091904D01*
X63764761Y-57139523D01*
X63812380Y-57234761D01*
X63812380Y-57472857D01*
X63764761Y-57568095D01*
X63717142Y-57615714D01*
%TO.C,R6*%
X67622380Y-57996666D02*
X67146190Y-58330000D01*
X67622380Y-58568095D02*
X66622380Y-58568095D01*
X66622380Y-58187142D01*
X66670000Y-58091904D01*
X66717619Y-58044285D01*
X66812857Y-57996666D01*
X66955714Y-57996666D01*
X67050952Y-58044285D01*
X67098571Y-58091904D01*
X67146190Y-58187142D01*
X67146190Y-58568095D01*
X66622380Y-57139523D02*
X66622380Y-57330000D01*
X66670000Y-57425238D01*
X66717619Y-57472857D01*
X66860476Y-57568095D01*
X67050952Y-57615714D01*
X67431904Y-57615714D01*
X67527142Y-57568095D01*
X67574761Y-57520476D01*
X67622380Y-57425238D01*
X67622380Y-57234761D01*
X67574761Y-57139523D01*
X67527142Y-57091904D01*
X67431904Y-57044285D01*
X67193809Y-57044285D01*
X67098571Y-57091904D01*
X67050952Y-57139523D01*
X67003333Y-57234761D01*
X67003333Y-57425238D01*
X67050952Y-57520476D01*
X67098571Y-57568095D01*
X67193809Y-57615714D01*
%TO.C,R7*%
X71432380Y-57996666D02*
X70956190Y-58330000D01*
X71432380Y-58568095D02*
X70432380Y-58568095D01*
X70432380Y-58187142D01*
X70480000Y-58091904D01*
X70527619Y-58044285D01*
X70622857Y-57996666D01*
X70765714Y-57996666D01*
X70860952Y-58044285D01*
X70908571Y-58091904D01*
X70956190Y-58187142D01*
X70956190Y-58568095D01*
X70432380Y-57663333D02*
X70432380Y-56996666D01*
X71432380Y-57425238D01*
%TO.C,R8*%
X75242380Y-57996666D02*
X74766190Y-58330000D01*
X75242380Y-58568095D02*
X74242380Y-58568095D01*
X74242380Y-58187142D01*
X74290000Y-58091904D01*
X74337619Y-58044285D01*
X74432857Y-57996666D01*
X74575714Y-57996666D01*
X74670952Y-58044285D01*
X74718571Y-58091904D01*
X74766190Y-58187142D01*
X74766190Y-58568095D01*
X74670952Y-57425238D02*
X74623333Y-57520476D01*
X74575714Y-57568095D01*
X74480476Y-57615714D01*
X74432857Y-57615714D01*
X74337619Y-57568095D01*
X74290000Y-57520476D01*
X74242380Y-57425238D01*
X74242380Y-57234761D01*
X74290000Y-57139523D01*
X74337619Y-57091904D01*
X74432857Y-57044285D01*
X74480476Y-57044285D01*
X74575714Y-57091904D01*
X74623333Y-57139523D01*
X74670952Y-57234761D01*
X74670952Y-57425238D01*
X74718571Y-57520476D01*
X74766190Y-57568095D01*
X74861428Y-57615714D01*
X75051904Y-57615714D01*
X75147142Y-57568095D01*
X75194761Y-57520476D01*
X75242380Y-57425238D01*
X75242380Y-57234761D01*
X75194761Y-57139523D01*
X75147142Y-57091904D01*
X75051904Y-57044285D01*
X74861428Y-57044285D01*
X74766190Y-57091904D01*
X74718571Y-57139523D01*
X74670952Y-57234761D01*
%TO.C,R9*%
X79052380Y-57996666D02*
X78576190Y-58330000D01*
X79052380Y-58568095D02*
X78052380Y-58568095D01*
X78052380Y-58187142D01*
X78100000Y-58091904D01*
X78147619Y-58044285D01*
X78242857Y-57996666D01*
X78385714Y-57996666D01*
X78480952Y-58044285D01*
X78528571Y-58091904D01*
X78576190Y-58187142D01*
X78576190Y-58568095D01*
X79052380Y-57520476D02*
X79052380Y-57330000D01*
X79004761Y-57234761D01*
X78957142Y-57187142D01*
X78814285Y-57091904D01*
X78623809Y-57044285D01*
X78242857Y-57044285D01*
X78147619Y-57091904D01*
X78100000Y-57139523D01*
X78052380Y-57234761D01*
X78052380Y-57425238D01*
X78100000Y-57520476D01*
X78147619Y-57568095D01*
X78242857Y-57615714D01*
X78480952Y-57615714D01*
X78576190Y-57568095D01*
X78623809Y-57520476D01*
X78671428Y-57425238D01*
X78671428Y-57234761D01*
X78623809Y-57139523D01*
X78576190Y-57091904D01*
X78480952Y-57044285D01*
%TO.C,R10*%
X82862380Y-58472857D02*
X82386190Y-58806190D01*
X82862380Y-59044285D02*
X81862380Y-59044285D01*
X81862380Y-58663333D01*
X81910000Y-58568095D01*
X81957619Y-58520476D01*
X82052857Y-58472857D01*
X82195714Y-58472857D01*
X82290952Y-58520476D01*
X82338571Y-58568095D01*
X82386190Y-58663333D01*
X82386190Y-59044285D01*
X82862380Y-57520476D02*
X82862380Y-58091904D01*
X82862380Y-57806190D02*
X81862380Y-57806190D01*
X82005238Y-57901428D01*
X82100476Y-57996666D01*
X82148095Y-58091904D01*
X81862380Y-56901428D02*
X81862380Y-56806190D01*
X81910000Y-56710952D01*
X81957619Y-56663333D01*
X82052857Y-56615714D01*
X82243333Y-56568095D01*
X82481428Y-56568095D01*
X82671904Y-56615714D01*
X82767142Y-56663333D01*
X82814761Y-56710952D01*
X82862380Y-56806190D01*
X82862380Y-56901428D01*
X82814761Y-56996666D01*
X82767142Y-57044285D01*
X82671904Y-57091904D01*
X82481428Y-57139523D01*
X82243333Y-57139523D01*
X82052857Y-57091904D01*
X81957619Y-57044285D01*
X81910000Y-56996666D01*
X81862380Y-56901428D01*
%TO.C,R11*%
X86672380Y-58472857D02*
X86196190Y-58806190D01*
X86672380Y-59044285D02*
X85672380Y-59044285D01*
X85672380Y-58663333D01*
X85720000Y-58568095D01*
X85767619Y-58520476D01*
X85862857Y-58472857D01*
X86005714Y-58472857D01*
X86100952Y-58520476D01*
X86148571Y-58568095D01*
X86196190Y-58663333D01*
X86196190Y-59044285D01*
X86672380Y-57520476D02*
X86672380Y-58091904D01*
X86672380Y-57806190D02*
X85672380Y-57806190D01*
X85815238Y-57901428D01*
X85910476Y-57996666D01*
X85958095Y-58091904D01*
X86672380Y-56568095D02*
X86672380Y-57139523D01*
X86672380Y-56853809D02*
X85672380Y-56853809D01*
X85815238Y-56949047D01*
X85910476Y-57044285D01*
X85958095Y-57139523D01*
%TO.C,R12*%
X90482380Y-58472857D02*
X90006190Y-58806190D01*
X90482380Y-59044285D02*
X89482380Y-59044285D01*
X89482380Y-58663333D01*
X89530000Y-58568095D01*
X89577619Y-58520476D01*
X89672857Y-58472857D01*
X89815714Y-58472857D01*
X89910952Y-58520476D01*
X89958571Y-58568095D01*
X90006190Y-58663333D01*
X90006190Y-59044285D01*
X90482380Y-57520476D02*
X90482380Y-58091904D01*
X90482380Y-57806190D02*
X89482380Y-57806190D01*
X89625238Y-57901428D01*
X89720476Y-57996666D01*
X89768095Y-58091904D01*
X89577619Y-57139523D02*
X89530000Y-57091904D01*
X89482380Y-56996666D01*
X89482380Y-56758571D01*
X89530000Y-56663333D01*
X89577619Y-56615714D01*
X89672857Y-56568095D01*
X89768095Y-56568095D01*
X89910952Y-56615714D01*
X90482380Y-57187142D01*
X90482380Y-56568095D01*
%TO.C,R13*%
X106572380Y-58222857D02*
X106096190Y-58556190D01*
X106572380Y-58794285D02*
X105572380Y-58794285D01*
X105572380Y-58413333D01*
X105620000Y-58318095D01*
X105667619Y-58270476D01*
X105762857Y-58222857D01*
X105905714Y-58222857D01*
X106000952Y-58270476D01*
X106048571Y-58318095D01*
X106096190Y-58413333D01*
X106096190Y-58794285D01*
X106572380Y-57270476D02*
X106572380Y-57841904D01*
X106572380Y-57556190D02*
X105572380Y-57556190D01*
X105715238Y-57651428D01*
X105810476Y-57746666D01*
X105858095Y-57841904D01*
X105572380Y-56937142D02*
X105572380Y-56318095D01*
X105953333Y-56651428D01*
X105953333Y-56508571D01*
X106000952Y-56413333D01*
X106048571Y-56365714D01*
X106143809Y-56318095D01*
X106381904Y-56318095D01*
X106477142Y-56365714D01*
X106524761Y-56413333D01*
X106572380Y-56508571D01*
X106572380Y-56794285D01*
X106524761Y-56889523D01*
X106477142Y-56937142D01*
%TO.C,R14*%
X110382380Y-58222857D02*
X109906190Y-58556190D01*
X110382380Y-58794285D02*
X109382380Y-58794285D01*
X109382380Y-58413333D01*
X109430000Y-58318095D01*
X109477619Y-58270476D01*
X109572857Y-58222857D01*
X109715714Y-58222857D01*
X109810952Y-58270476D01*
X109858571Y-58318095D01*
X109906190Y-58413333D01*
X109906190Y-58794285D01*
X110382380Y-57270476D02*
X110382380Y-57841904D01*
X110382380Y-57556190D02*
X109382380Y-57556190D01*
X109525238Y-57651428D01*
X109620476Y-57746666D01*
X109668095Y-57841904D01*
X109715714Y-56413333D02*
X110382380Y-56413333D01*
X109334761Y-56651428D02*
X110049047Y-56889523D01*
X110049047Y-56270476D01*
%TO.C,R15*%
X114192380Y-58222857D02*
X113716190Y-58556190D01*
X114192380Y-58794285D02*
X113192380Y-58794285D01*
X113192380Y-58413333D01*
X113240000Y-58318095D01*
X113287619Y-58270476D01*
X113382857Y-58222857D01*
X113525714Y-58222857D01*
X113620952Y-58270476D01*
X113668571Y-58318095D01*
X113716190Y-58413333D01*
X113716190Y-58794285D01*
X114192380Y-57270476D02*
X114192380Y-57841904D01*
X114192380Y-57556190D02*
X113192380Y-57556190D01*
X113335238Y-57651428D01*
X113430476Y-57746666D01*
X113478095Y-57841904D01*
X113192380Y-56365714D02*
X113192380Y-56841904D01*
X113668571Y-56889523D01*
X113620952Y-56841904D01*
X113573333Y-56746666D01*
X113573333Y-56508571D01*
X113620952Y-56413333D01*
X113668571Y-56365714D01*
X113763809Y-56318095D01*
X114001904Y-56318095D01*
X114097142Y-56365714D01*
X114144761Y-56413333D01*
X114192380Y-56508571D01*
X114192380Y-56746666D01*
X114144761Y-56841904D01*
X114097142Y-56889523D01*
%TO.C,R16*%
X118002380Y-58222857D02*
X117526190Y-58556190D01*
X118002380Y-58794285D02*
X117002380Y-58794285D01*
X117002380Y-58413333D01*
X117050000Y-58318095D01*
X117097619Y-58270476D01*
X117192857Y-58222857D01*
X117335714Y-58222857D01*
X117430952Y-58270476D01*
X117478571Y-58318095D01*
X117526190Y-58413333D01*
X117526190Y-58794285D01*
X118002380Y-57270476D02*
X118002380Y-57841904D01*
X118002380Y-57556190D02*
X117002380Y-57556190D01*
X117145238Y-57651428D01*
X117240476Y-57746666D01*
X117288095Y-57841904D01*
X117002380Y-56413333D02*
X117002380Y-56603809D01*
X117050000Y-56699047D01*
X117097619Y-56746666D01*
X117240476Y-56841904D01*
X117430952Y-56889523D01*
X117811904Y-56889523D01*
X117907142Y-56841904D01*
X117954761Y-56794285D01*
X118002380Y-56699047D01*
X118002380Y-56508571D01*
X117954761Y-56413333D01*
X117907142Y-56365714D01*
X117811904Y-56318095D01*
X117573809Y-56318095D01*
X117478571Y-56365714D01*
X117430952Y-56413333D01*
X117383333Y-56508571D01*
X117383333Y-56699047D01*
X117430952Y-56794285D01*
X117478571Y-56841904D01*
X117573809Y-56889523D01*
%TO.C,R17*%
X121812380Y-58222857D02*
X121336190Y-58556190D01*
X121812380Y-58794285D02*
X120812380Y-58794285D01*
X120812380Y-58413333D01*
X120860000Y-58318095D01*
X120907619Y-58270476D01*
X121002857Y-58222857D01*
X121145714Y-58222857D01*
X121240952Y-58270476D01*
X121288571Y-58318095D01*
X121336190Y-58413333D01*
X121336190Y-58794285D01*
X121812380Y-57270476D02*
X121812380Y-57841904D01*
X121812380Y-57556190D02*
X120812380Y-57556190D01*
X120955238Y-57651428D01*
X121050476Y-57746666D01*
X121098095Y-57841904D01*
X120812380Y-56937142D02*
X120812380Y-56270476D01*
X121812380Y-56699047D01*
%TO.C,R18*%
X125622380Y-58222857D02*
X125146190Y-58556190D01*
X125622380Y-58794285D02*
X124622380Y-58794285D01*
X124622380Y-58413333D01*
X124670000Y-58318095D01*
X124717619Y-58270476D01*
X124812857Y-58222857D01*
X124955714Y-58222857D01*
X125050952Y-58270476D01*
X125098571Y-58318095D01*
X125146190Y-58413333D01*
X125146190Y-58794285D01*
X125622380Y-57270476D02*
X125622380Y-57841904D01*
X125622380Y-57556190D02*
X124622380Y-57556190D01*
X124765238Y-57651428D01*
X124860476Y-57746666D01*
X124908095Y-57841904D01*
X125050952Y-56699047D02*
X125003333Y-56794285D01*
X124955714Y-56841904D01*
X124860476Y-56889523D01*
X124812857Y-56889523D01*
X124717619Y-56841904D01*
X124670000Y-56794285D01*
X124622380Y-56699047D01*
X124622380Y-56508571D01*
X124670000Y-56413333D01*
X124717619Y-56365714D01*
X124812857Y-56318095D01*
X124860476Y-56318095D01*
X124955714Y-56365714D01*
X125003333Y-56413333D01*
X125050952Y-56508571D01*
X125050952Y-56699047D01*
X125098571Y-56794285D01*
X125146190Y-56841904D01*
X125241428Y-56889523D01*
X125431904Y-56889523D01*
X125527142Y-56841904D01*
X125574761Y-56794285D01*
X125622380Y-56699047D01*
X125622380Y-56508571D01*
X125574761Y-56413333D01*
X125527142Y-56365714D01*
X125431904Y-56318095D01*
X125241428Y-56318095D01*
X125146190Y-56365714D01*
X125098571Y-56413333D01*
X125050952Y-56508571D01*
%TO.C,R19*%
X129432380Y-58222857D02*
X128956190Y-58556190D01*
X129432380Y-58794285D02*
X128432380Y-58794285D01*
X128432380Y-58413333D01*
X128480000Y-58318095D01*
X128527619Y-58270476D01*
X128622857Y-58222857D01*
X128765714Y-58222857D01*
X128860952Y-58270476D01*
X128908571Y-58318095D01*
X128956190Y-58413333D01*
X128956190Y-58794285D01*
X129432380Y-57270476D02*
X129432380Y-57841904D01*
X129432380Y-57556190D02*
X128432380Y-57556190D01*
X128575238Y-57651428D01*
X128670476Y-57746666D01*
X128718095Y-57841904D01*
X129432380Y-56794285D02*
X129432380Y-56603809D01*
X129384761Y-56508571D01*
X129337142Y-56460952D01*
X129194285Y-56365714D01*
X129003809Y-56318095D01*
X128622857Y-56318095D01*
X128527619Y-56365714D01*
X128480000Y-56413333D01*
X128432380Y-56508571D01*
X128432380Y-56699047D01*
X128480000Y-56794285D01*
X128527619Y-56841904D01*
X128622857Y-56889523D01*
X128860952Y-56889523D01*
X128956190Y-56841904D01*
X129003809Y-56794285D01*
X129051428Y-56699047D01*
X129051428Y-56508571D01*
X129003809Y-56413333D01*
X128956190Y-56365714D01*
X128860952Y-56318095D01*
%TO.C,R20*%
X133242380Y-58222857D02*
X132766190Y-58556190D01*
X133242380Y-58794285D02*
X132242380Y-58794285D01*
X132242380Y-58413333D01*
X132290000Y-58318095D01*
X132337619Y-58270476D01*
X132432857Y-58222857D01*
X132575714Y-58222857D01*
X132670952Y-58270476D01*
X132718571Y-58318095D01*
X132766190Y-58413333D01*
X132766190Y-58794285D01*
X132337619Y-57841904D02*
X132290000Y-57794285D01*
X132242380Y-57699047D01*
X132242380Y-57460952D01*
X132290000Y-57365714D01*
X132337619Y-57318095D01*
X132432857Y-57270476D01*
X132528095Y-57270476D01*
X132670952Y-57318095D01*
X133242380Y-57889523D01*
X133242380Y-57270476D01*
X132242380Y-56651428D02*
X132242380Y-56556190D01*
X132290000Y-56460952D01*
X132337619Y-56413333D01*
X132432857Y-56365714D01*
X132623333Y-56318095D01*
X132861428Y-56318095D01*
X133051904Y-56365714D01*
X133147142Y-56413333D01*
X133194761Y-56460952D01*
X133242380Y-56556190D01*
X133242380Y-56651428D01*
X133194761Y-56746666D01*
X133147142Y-56794285D01*
X133051904Y-56841904D01*
X132861428Y-56889523D01*
X132623333Y-56889523D01*
X132432857Y-56841904D01*
X132337619Y-56794285D01*
X132290000Y-56746666D01*
X132242380Y-56651428D01*
%TO.C,R21*%
X137052380Y-58222857D02*
X136576190Y-58556190D01*
X137052380Y-58794285D02*
X136052380Y-58794285D01*
X136052380Y-58413333D01*
X136100000Y-58318095D01*
X136147619Y-58270476D01*
X136242857Y-58222857D01*
X136385714Y-58222857D01*
X136480952Y-58270476D01*
X136528571Y-58318095D01*
X136576190Y-58413333D01*
X136576190Y-58794285D01*
X136147619Y-57841904D02*
X136100000Y-57794285D01*
X136052380Y-57699047D01*
X136052380Y-57460952D01*
X136100000Y-57365714D01*
X136147619Y-57318095D01*
X136242857Y-57270476D01*
X136338095Y-57270476D01*
X136480952Y-57318095D01*
X137052380Y-57889523D01*
X137052380Y-57270476D01*
X137052380Y-56318095D02*
X137052380Y-56889523D01*
X137052380Y-56603809D02*
X136052380Y-56603809D01*
X136195238Y-56699047D01*
X136290476Y-56794285D01*
X136338095Y-56889523D01*
%TO.C,R22*%
X140862380Y-58222857D02*
X140386190Y-58556190D01*
X140862380Y-58794285D02*
X139862380Y-58794285D01*
X139862380Y-58413333D01*
X139910000Y-58318095D01*
X139957619Y-58270476D01*
X140052857Y-58222857D01*
X140195714Y-58222857D01*
X140290952Y-58270476D01*
X140338571Y-58318095D01*
X140386190Y-58413333D01*
X140386190Y-58794285D01*
X139957619Y-57841904D02*
X139910000Y-57794285D01*
X139862380Y-57699047D01*
X139862380Y-57460952D01*
X139910000Y-57365714D01*
X139957619Y-57318095D01*
X140052857Y-57270476D01*
X140148095Y-57270476D01*
X140290952Y-57318095D01*
X140862380Y-57889523D01*
X140862380Y-57270476D01*
X139957619Y-56889523D02*
X139910000Y-56841904D01*
X139862380Y-56746666D01*
X139862380Y-56508571D01*
X139910000Y-56413333D01*
X139957619Y-56365714D01*
X140052857Y-56318095D01*
X140148095Y-56318095D01*
X140290952Y-56365714D01*
X140862380Y-56937142D01*
X140862380Y-56318095D01*
%TO.C,R23*%
X144672380Y-58222857D02*
X144196190Y-58556190D01*
X144672380Y-58794285D02*
X143672380Y-58794285D01*
X143672380Y-58413333D01*
X143720000Y-58318095D01*
X143767619Y-58270476D01*
X143862857Y-58222857D01*
X144005714Y-58222857D01*
X144100952Y-58270476D01*
X144148571Y-58318095D01*
X144196190Y-58413333D01*
X144196190Y-58794285D01*
X143767619Y-57841904D02*
X143720000Y-57794285D01*
X143672380Y-57699047D01*
X143672380Y-57460952D01*
X143720000Y-57365714D01*
X143767619Y-57318095D01*
X143862857Y-57270476D01*
X143958095Y-57270476D01*
X144100952Y-57318095D01*
X144672380Y-57889523D01*
X144672380Y-57270476D01*
X143672380Y-56937142D02*
X143672380Y-56318095D01*
X144053333Y-56651428D01*
X144053333Y-56508571D01*
X144100952Y-56413333D01*
X144148571Y-56365714D01*
X144243809Y-56318095D01*
X144481904Y-56318095D01*
X144577142Y-56365714D01*
X144624761Y-56413333D01*
X144672380Y-56508571D01*
X144672380Y-56794285D01*
X144624761Y-56889523D01*
X144577142Y-56937142D01*
%TO.C,R24*%
X148482380Y-58222857D02*
X148006190Y-58556190D01*
X148482380Y-58794285D02*
X147482380Y-58794285D01*
X147482380Y-58413333D01*
X147530000Y-58318095D01*
X147577619Y-58270476D01*
X147672857Y-58222857D01*
X147815714Y-58222857D01*
X147910952Y-58270476D01*
X147958571Y-58318095D01*
X148006190Y-58413333D01*
X148006190Y-58794285D01*
X147577619Y-57841904D02*
X147530000Y-57794285D01*
X147482380Y-57699047D01*
X147482380Y-57460952D01*
X147530000Y-57365714D01*
X147577619Y-57318095D01*
X147672857Y-57270476D01*
X147768095Y-57270476D01*
X147910952Y-57318095D01*
X148482380Y-57889523D01*
X148482380Y-57270476D01*
X147815714Y-56413333D02*
X148482380Y-56413333D01*
X147434761Y-56651428D02*
X148149047Y-56889523D01*
X148149047Y-56270476D01*
%TO.C,U1*%
X41622380Y-31951904D02*
X42431904Y-31951904D01*
X42527142Y-31904285D01*
X42574761Y-31856666D01*
X42622380Y-31761428D01*
X42622380Y-31570952D01*
X42574761Y-31475714D01*
X42527142Y-31428095D01*
X42431904Y-31380476D01*
X41622380Y-31380476D01*
X42622380Y-30380476D02*
X42622380Y-30951904D01*
X42622380Y-30666190D02*
X41622380Y-30666190D01*
X41765238Y-30761428D01*
X41860476Y-30856666D01*
X41908095Y-30951904D01*
%TO.C,U2*%
X68622380Y-31951904D02*
X69431904Y-31951904D01*
X69527142Y-31904285D01*
X69574761Y-31856666D01*
X69622380Y-31761428D01*
X69622380Y-31570952D01*
X69574761Y-31475714D01*
X69527142Y-31428095D01*
X69431904Y-31380476D01*
X68622380Y-31380476D01*
X68717619Y-30951904D02*
X68670000Y-30904285D01*
X68622380Y-30809047D01*
X68622380Y-30570952D01*
X68670000Y-30475714D01*
X68717619Y-30428095D01*
X68812857Y-30380476D01*
X68908095Y-30380476D01*
X69050952Y-30428095D01*
X69622380Y-30999523D01*
X69622380Y-30380476D01*
%TO.C,U3*%
X97622380Y-31951904D02*
X98431904Y-31951904D01*
X98527142Y-31904285D01*
X98574761Y-31856666D01*
X98622380Y-31761428D01*
X98622380Y-31570952D01*
X98574761Y-31475714D01*
X98527142Y-31428095D01*
X98431904Y-31380476D01*
X97622380Y-31380476D01*
X97622380Y-30999523D02*
X97622380Y-30380476D01*
X98003333Y-30713809D01*
X98003333Y-30570952D01*
X98050952Y-30475714D01*
X98098571Y-30428095D01*
X98193809Y-30380476D01*
X98431904Y-30380476D01*
X98527142Y-30428095D01*
X98574761Y-30475714D01*
X98622380Y-30570952D01*
X98622380Y-30856666D01*
X98574761Y-30951904D01*
X98527142Y-30999523D01*
%TO.C,U4*%
X127622380Y-31951904D02*
X128431904Y-31951904D01*
X128527142Y-31904285D01*
X128574761Y-31856666D01*
X128622380Y-31761428D01*
X128622380Y-31570952D01*
X128574761Y-31475714D01*
X128527142Y-31428095D01*
X128431904Y-31380476D01*
X127622380Y-31380476D01*
X127955714Y-30475714D02*
X128622380Y-30475714D01*
X127574761Y-30713809D02*
X128289047Y-30951904D01*
X128289047Y-30332857D01*
%TD*%
M02*
